<svg xmlns="http://www.w3.org/2000/svg" width="37" height="36"><rect width="37" height="36" rx="6" fill="#00335a"/><g transform="translate(9 8)" fill="#fff"><path d="M13.733 0H6.267A6.259 6.259 0 000 6.267v7.511A6.25 6.25 0 006.267 20h7.511A6.25 6.25 0 0020 13.733V6.267A6.259 6.259 0 0013.733 0zm4.4 13.733a4.363 4.363 0 01-4.356 4.356h-7.51a4.363 4.363 0 01-4.356-4.356V6.267a4.363 4.363 0 014.356-4.356h7.511a4.363 4.363 0 014.356 4.356z"/><path d="M10 4.978A5 5 0 1015.022 10 5.075 5.075 0 0010 4.978zm0 8.133A3.111 3.111 0 1113.111 10 3.092 3.092 0 0110 13.111z"/><circle cx=".667" cy=".667" r=".667" transform="translate(14.711 3.956)"/></g></svg>