<svg xmlns="http://www.w3.org/2000/svg" width="37" height="36"><defs><clipPath id="a"><path fill="#fff" d="M0 0h18.003v18.21H0z"/></clipPath></defs><g transform="translate(-1600 -60)"><rect width="37" height="36" rx="6" transform="translate(1600 60)" fill="#00335a"/><g clip-path="url(#a)" fill="#fff" transform="translate(1609.645 68.331)"><path d="M9.878 18.203H6.325V6.175h3.542v1.711c.1-.113.15-.164.191-.223a4.339 4.339 0 017.423.411A4.668 4.668 0 0118 10.422c-.011.7-.014 1.4-.015 2.094v5.688h-3.556v-.344q0-3.035-.006-6.07a2.2 2.2 0 00-1.094-1.986 2.268 2.268 0 00-3.45 1.939c-.012 2.023 0 4.047 0 6.07zM.387 6.176h3.536V18.21H.387zM4.301 2.167a2.165 2.165 0 01-2.173 2.126A2.166 2.166 0 01.001 2.12a2.151 2.151 0 014.3.047"/></g></g></svg>