<svg xmlns="http://www.w3.org/2000/svg" width="35" height="14"><defs><clipPath id="a"><path fill="#fff" d="M0 0h35v14H0z"/></clipPath></defs><g clip-path="url(#a)" fill="#fff"><path d="M34.343 7.693H.658a.695.695 0 010-1.387h33.685a.695.695 0 010 1.387"/><path d="M28.365 14a.639.639 0 01-.465-.2.721.721 0 010-.981l5.973-6.313a.634.634 0 01.93 0 .721.721 0 010 .981l-5.977 6.306a.639.639 0 01-.465.2"/><path d="M34.342 7.694a.639.639 0 01-.465-.2L27.9 1.185a.72.72 0 010-.981.634.634 0 01.93 0l5.977 6.306a.721.721 0 010 .981.639.639 0 01-.465.2"/></g></svg>