<svg xmlns="http://www.w3.org/2000/svg" width="190.589" height="85.568"><defs><clipPath id="a"><path fill="none" d="M0 0h190.589v85.568H0z"/></clipPath></defs><g clip-path="url(#a)"><path d="M10.187 47.189a9.526 9.526 0 00-7.2 3.174 11.33 11.33 0 000 15.327 9.524 9.524 0 007.2 3.175A9.4 9.4 0 0016 66.944v1.92h4.372V58.025a10.8 10.8 0 00-2.986-7.662 9.549 9.549 0 00-7.2-3.174M14.3 62.405a5.439 5.439 0 01-4.115 1.81 5.441 5.441 0 01-4.119-1.81 6.481 6.481 0 010-8.76 5.436 5.436 0 014.119-1.8 5.434 5.434 0 014.115 1.8 6.493 6.493 0 010 8.76M48.008 47.189a9.557 9.557 0 00-7.2 3.175c-.288.3-.555.629-.8.939a11.3 11.3 0 00-.8-.939 9.756 9.756 0 00-14.4 0 10.807 10.807 0 00-2.973 7.661v10.84h4.36v-10.84a6.173 6.173 0 011.7-4.381 5.61 5.61 0 018.243 0 6.176 6.176 0 011.7 4.381v10.84h4.372v-10.84a6.178 6.178 0 011.7-4.381 5.593 5.593 0 018.228 0 6.132 6.132 0 011.707 4.381v10.84h4.361v-10.84a10.768 10.768 0 00-2.981-7.661 9.53 9.53 0 00-7.2-3.175M69.832 47.189a9.388 9.388 0 00-5.816 1.918v-6.559h-4.363v15.476a10.813 10.813 0 002.979 7.665 9.757 9.757 0 0014.405 0 11.339 11.339 0 000-15.327 9.549 9.549 0 00-7.206-3.174m4.124 15.216a5.591 5.591 0 01-8.237 0 6.484 6.484 0 010-8.76 5.6 5.6 0 018.237 0 6.5 6.5 0 010 8.76M81.474 42.548h4.364v4.641h-4.364zM81.474 48.742h4.364v20.124h-4.364zM97.478 47.189a9.516 9.516 0 00-7.2 3.175 11.316 11.316 0 000 15.324 9.749 9.749 0 0014.4 0 10.657 10.657 0 002.34-3.8h-4.991a4.4 4.4 0 01-.43.517 5.591 5.591 0 01-8.237 0 6.129 6.129 0 01-1.3-2.06h15.383a12.469 12.469 0 00.223-2.32 10.775 10.775 0 00-2.987-7.661 9.528 9.528 0 00-7.2-3.175m-5.414 8.517a6.07 6.07 0 011.3-2.064 5.607 5.607 0 018.237 0 6.009 6.009 0 011.291 2.064zM119.298 47.189a9.516 9.516 0 00-7.2 3.175 10.779 10.779 0 00-2.982 7.661v10.84h4.368v-10.84a6.164 6.164 0 011.7-4.381 5.6 5.6 0 018.231 0 6.2 6.2 0 011.7 4.381v10.84h4.359v-10.84a10.767 10.767 0 00-2.979-7.661 9.517 9.517 0 00-7.2-3.175M135.3 42.547h-4.361v15.479a10.787 10.787 0 002.985 7.663 9.521 9.521 0 007.194 3.177v-4.651a5.447 5.447 0 01-4.115-1.81 6.163 6.163 0 01-1.705-4.379v-6.185h5.821v-4.652h-5.821zM152.764 47.189a9.564 9.564 0 00-7.2 3.174 11.339 11.339 0 000 15.327 9.561 9.561 0 007.2 3.175 9.42 9.42 0 005.822-1.92v1.92h4.361v-10.84a10.794 10.794 0 00-2.982-7.662 9.522 9.522 0 00-7.2-3.174m4.111 15.216a5.58 5.58 0 01-8.228 0 6.493 6.493 0 010-8.76 5.591 5.591 0 018.228 0 6.463 6.463 0 010 8.76M164.407 42.548h4.36v26.318h-4.36zM186.236 47.189v10.836a6.186 6.186 0 01-1.714 4.381 5.59 5.59 0 01-8.236 0 6.179 6.179 0 01-1.7-4.381V47.189h-4.36v10.836a10.793 10.793 0 002.976 7.664 9.538 9.538 0 007.208 3.176 9.413 9.413 0 004.932-1.319 6.772 6.772 0 01-.819 1.054 5.437 5.437 0 01-4.112 1.809v4.642a9.459 9.459 0 007.2-3.179 10.723 10.723 0 002.981-7.655V47.189z" fill="#004272"/><path d="M85.734 39.057s29.49 3.787 57.312-21.109c0 0-17.6 39.781-57.312 21.109" fill="#1b5625"/><path d="M103.128 22.522a18.082 18.082 0 01-4.457 3.637c-7.9 4.952-17.035 5.625-26.062 4.077 21.217 4.794 49.253 2.99 74.811-24.715 0 0-17.158 12.485-44.291 17" fill="#469826"/><path d="M38.557 15.267a119.2 119.2 0 0064.572 7.256c3.648-4.045 7.065-11.5-.558-22.523 0 0 5.219 21.971-20.845 23.2 0 0-18.753 3.884-53.854-14.923 0 0 22.034 18.05 44.74 21.953a98.8 98.8 0 01-34.055-14.963" fill="#8eb314"/><path d="M38.556 15.266a98.8 98.8 0 0034.058 14.966c9.027 1.549 18.165.875 26.062-4.077a18.03 18.03 0 004.457-3.635 119.176 119.176 0 01-64.572-7.254M22.897 75.401h.903v7.75h-.903zM25.289 83.151V79.12c0-.623-.015-1.13-.04-1.529h.8l.076.936a1.818 1.818 0 01.663-.771 1.645 1.645 0 01.945-.293 1.52 1.52 0 011.237.616 2.881 2.881 0 01.492 1.807v3.265h-.907v-3.142a2.227 2.227 0 00-.28-1.224.962.962 0 00-.842-.444 1.139 1.139 0 00-.87.435 1.546 1.546 0 00-.367 1.049v3.326zM31.079 76.556l.892-.308v1.344h1.254v.813h-1.252v2.9a1.8 1.8 0 00.153.845.576.576 0 00.512.248 1.7 1.7 0 00.515-.067l.044.809a2.13 2.13 0 01-.819.142c-.864 0-1.3-.634-1.3-1.91v-2.967h-.739v-.813h.74zM38.123 80.589h-3.427a2.019 2.019 0 00.47 1.382 1.547 1.547 0 001.178.484 3.153 3.153 0 001.381-.3l.153.753a3.489 3.489 0 01-1.645.366 2.166 2.166 0 01-1.759-.777 3.02 3.02 0 01-.659-2.046 3.484 3.484 0 01.627-2.126 2 2 0 011.688-.868 1.7 1.7 0 011.5.772 3.243 3.243 0 01.523 1.874 2.94 2.94 0 01-.031.482m-3.413-.771h2.563a1.926 1.926 0 00-.318-1.164 1.035 1.035 0 00-.893-.438 1.148 1.148 0 00-.913.438 2.136 2.136 0 00-.44 1.164M39.244 74.961h.906v8.191h-.906zM42.651 75.906a.748.748 0 01-.164.482.553.553 0 01-.43.187.528.528 0 01-.409-.187.716.716 0 01-.166-.482.673.673 0 01.167-.477.539.539 0 01.418-.2.531.531 0 01.418.2.748.748 0 01.166.477m-.127 7.248h-.911v-5.563h.911zM48.175 79.107v3.22a3.673 3.673 0 01-.674 2.532 2.384 2.384 0 01-1.823.708 2.565 2.565 0 01-1.643-.489l.223-.812a2.378 2.378 0 001.452.46 1.422 1.422 0 001.163-.494 2.262 2.262 0 00.409-1.446l-.029-.609a1.655 1.655 0 01-1.551.961 1.828 1.828 0 01-1.5-.787 3.144 3.144 0 01-.594-1.935 3.347 3.347 0 01.661-2.148 1.926 1.926 0 011.551-.807 1.633 1.633 0 011.555.963l.033-.832h.813c-.034.326-.049.828-.049 1.516m-.908 1.616v-.906a1.71 1.71 0 00-.358-1.076 1.118 1.118 0 00-.931-.447 1.227 1.227 0 00-1.043.572 2.445 2.445 0 00-.409 1.5 2.334 2.334 0 00.395 1.4 1.227 1.227 0 001.046.551 1.2 1.2 0 00.919-.441 1.708 1.708 0 00.381-1.149M53.582 80.588h-3.43a2.084 2.084 0 00.474 1.383 1.564 1.564 0 001.183.482 3.168 3.168 0 001.38-.293l.152.751a3.481 3.481 0 01-1.644.366 2.188 2.188 0 01-1.764-.776 3.032 3.032 0 01-.65-2.05 3.5 3.5 0 01.627-2.123 1.972 1.972 0 011.681-.868 1.691 1.691 0 011.5.772 3.251 3.251 0 01.523 1.874 2.651 2.651 0 01-.033.482m-3.417-.771h2.576a1.952 1.952 0 00-.32-1.163 1.059 1.059 0 00-.9-.436 1.161 1.161 0 00-.909.436 2.2 2.2 0 00-.444 1.163m1.1-4.586h.612l.952 1.666h-.684l-.599-1.091-.572 1.089h-.662zM54.702 83.151V79.12c0-.623-.005-1.13-.03-1.529h.8l.081.936a1.874 1.874 0 01.651-.771 1.691 1.691 0 01.962-.293 1.531 1.531 0 011.229.616 2.881 2.881 0 01.5 1.807v3.265h-.916v-3.142a2.108 2.108 0 00-.292-1.224.939.939 0 00-.832-.444 1.125 1.125 0 00-.865.435 1.561 1.561 0 00-.38 1.049v3.326zM63.669 82.151l.139.8a2.927 2.927 0 01-1.417.328 2.18 2.18 0 01-1.755-.792 3.008 3.008 0 01-.684-2.046 3.117 3.117 0 01.735-2.148 2.374 2.374 0 011.893-.832 2.555 2.555 0 011.256.31l-.2.816a1.971 1.971 0 00-1.045-.27 1.533 1.533 0 00-1.251.569 2.3 2.3 0 00-.46 1.479 2.177 2.177 0 00.481 1.5 1.5 1.5 0 001.2.552 2.463 2.463 0 001.1-.271M65.899 75.906a.722.722 0 01-.167.482.537.537 0 01-.421.187.528.528 0 01-.414-.187.725.725 0 01-.164-.482.681.681 0 01.164-.477.544.544 0 01.428-.2.529.529 0 01.408.2.678.678 0 01.167.477m-.134 7.248h-.914v-5.563h.914zM70.679 79.783v2.031a9.48 9.48 0 00.08 1.337h-.83l-.111-.712a1.666 1.666 0 01-1.493.841 1.406 1.406 0 01-1.085-.462 1.727 1.727 0 01-.395-1.133 1.756 1.756 0 01.746-1.544 3.666 3.666 0 012.182-.54v-.107a1.383 1.383 0 00-.279-.916.99.99 0 00-.816-.334 2.084 2.084 0 00-1.29.417l-.2-.691a2.641 2.641 0 011.632-.508 1.643 1.643 0 011.391.6 2.692 2.692 0 01.472 1.722m-.888 1.467v-.919a2.749 2.749 0 00-1.586.329 1.126 1.126 0 00-.226 1.581.76.76 0 00.588.246 1.089 1.089 0 00.863-.385 1.185 1.185 0 00.361-.853M74.224 85.429v-6.017c0-.752-.013-1.351-.033-1.821h.807l.046.959h.025a1.886 1.886 0 011.752-1.089 1.789 1.789 0 011.483.787 3.312 3.312 0 01.593 2.03 3.456 3.456 0 01-.634 2.187 1.965 1.965 0 01-1.6.813 1.764 1.764 0 01-.883-.227 1.556 1.556 0 01-.625-.657h-.025v3.033zm.906-5.46v.882a1.66 1.66 0 00.4 1.134 1.24 1.24 0 00.954.45 1.262 1.262 0 001.092-.566 2.656 2.656 0 00.392-1.54 2.417 2.417 0 00-.392-1.445 1.231 1.231 0 00-1.821-.29 1.563 1.563 0 00-.488.7 2.172 2.172 0 00-.139.675M83.451 79.783v2.031a8.257 8.257 0 00.086 1.335h-.832l-.11-.712a1.657 1.657 0 01-1.488.841 1.39 1.39 0 01-1.087-.462 1.666 1.666 0 01-.4-1.133 1.762 1.762 0 01.75-1.544 3.664 3.664 0 012.184-.54v-.107a1.4 1.4 0 00-.285-.916.978.978 0 00-.819-.334 2.144 2.144 0 00-1.286.417l-.206-.691a2.67 2.67 0 011.634-.507 1.642 1.642 0 011.394.6 2.719 2.719 0 01.469 1.722m-.883 1.468v-.919a2.788 2.788 0 00-1.589.329 1.011 1.011 0 00-.449.875 1.046 1.046 0 00.219.706.789.789 0 00.593.246 1.117 1.117 0 00.868-.385 1.178 1.178 0 00.358-.853M84.869 83.151v-3.792c0-.721-.014-1.309-.036-1.767h.791l.065 1.105a2.058 2.058 0 01.557-.908 1.209 1.209 0 01.808-.325c.062 0 .136.012.244.02v1.011a1.3 1.3 0 00-.316-.034 1.046 1.046 0 00-.847.458 2.064 2.064 0 00-.353 1.294v2.938zM91.59 79.783v2.031a9.622 9.622 0 00.082 1.335h-.829l-.111-.712a1.658 1.658 0 01-1.488.841 1.367 1.367 0 01-1.083-.462 1.7 1.7 0 01-.407-1.133 1.768 1.768 0 01.748-1.544 3.682 3.682 0 012.184-.54v-.107a1.361 1.361 0 00-.281-.916.976.976 0 00-.819-.334 2.081 2.081 0 00-1.281.417l-.213-.691a2.674 2.674 0 011.638-.508 1.658 1.658 0 011.392.6 2.725 2.725 0 01.467 1.722m-.887 1.469v-.919a2.8 2.8 0 00-1.583.329 1.136 1.136 0 00-.227 1.581.775.775 0 00.587.246 1.117 1.117 0 00.873-.385 1.187 1.187 0 00.35-.853M95.322 76.556l.892-.308v1.344h1.254v.813h-1.253v2.9a1.6 1.6 0 00.16.845.551.551 0 00.5.248 1.77 1.77 0 00.521-.067l.032.809a2.027 2.027 0 01-.807.142c-.87 0-1.3-.634-1.3-1.91v-2.967h-.742v-.813h.742zM102.883 80.32a3.492 3.492 0 01-.328 1.561 2.233 2.233 0 01-.879 1.034 2.261 2.261 0 01-1.232.363 2.155 2.155 0 01-1.709-.79 3.1 3.1 0 01-.675-2.073 3.179 3.179 0 01.692-2.153 2.248 2.248 0 011.761-.8 2.144 2.144 0 011.713.792 3.111 3.111 0 01.659 2.067m-3.9.062a2.614 2.614 0 00.41 1.515 1.258 1.258 0 001.044.59 1.276 1.276 0 001.064-.6 2.516 2.516 0 00.427-1.533 2.733 2.733 0 00-.385-1.487 1.24 1.24 0 00-1.079-.613 1.218 1.218 0 00-1.082.613 2.679 2.679 0 00-.4 1.516M107.329 74.96h.909v6.735q0 .926.038 1.456h-.818l-.066-.991a1.785 1.785 0 01-1.665 1.119 1.85 1.85 0 01-1.509-.792 3.353 3.353 0 01-.6-2.035 3.444 3.444 0 01.637-2.155 1.888 1.888 0 011.569-.837 1.8 1.8 0 01.894.228 1.613 1.613 0 01.607.627zm0 5.8v-.882a1.665 1.665 0 00-.386-1.141 1.179 1.179 0 00-.929-.423 1.223 1.223 0 00-1.069.574 2.649 2.649 0 00-.4 1.505 2.571 2.571 0 00.384 1.452 1.2 1.2 0 001.067.576 1.229 1.229 0 00.926-.456 1.706 1.706 0 00.409-1.2M113.16 79.783v2.031a8.641 8.641 0 00.079 1.335h-.829l-.106-.712a1.672 1.672 0 01-1.5.841 1.392 1.392 0 01-1.084-.462 1.7 1.7 0 01-.4-1.133 1.774 1.774 0 01.743-1.544 3.679 3.679 0 012.179-.54v-.107a1.4 1.4 0 00-.274-.916.98.98 0 00-.813-.334 2.11 2.11 0 00-1.289.417l-.211-.691a2.655 2.655 0 011.629-.508 1.649 1.649 0 011.4.6 2.725 2.725 0 01.472 1.722m-.891 1.468v-.919a2.756 2.756 0 00-1.578.329 1.015 1.015 0 00-.451.875 1.031 1.031 0 00.223.706.768.768 0 00.589.246 1.092 1.092 0 00.864-.385 1.164 1.164 0 00.353-.853M114.251 82.887l.214-.814a2.052 2.052 0 001.19.416.953.953 0 00.68-.223.728.728 0 00.24-.582.844.844 0 00-.2-.578 2.054 2.054 0 00-.7-.423 1.683 1.683 0 01-1.29-1.563 1.6 1.6 0 011.685-1.659 2.119 2.119 0 011.211.347l-.228.769a1.74 1.74 0 00-1.013-.334.8.8 0 00-.572.209.79.79 0 00-.03 1.036 2.189 2.189 0 00.732.433 2.29 2.29 0 01.988.68 1.6 1.6 0 01.3.98 1.669 1.669 0 01-.5 1.24 1.876 1.876 0 01-1.328.457 2.563 2.563 0 01-1.391-.392M124.174 79.783v2.031a10.241 10.241 0 00.079 1.335h-.826l-.113-.712a1.651 1.651 0 01-1.487.841 1.374 1.374 0 01-1.079-.462 1.681 1.681 0 01-.405-1.133 1.786 1.786 0 01.745-1.544 3.693 3.693 0 012.184-.54v-.107a1.4 1.4 0 00-.278-.916.98.98 0 00-.818-.334 2.122 2.122 0 00-1.285.417l-.205-.691a2.655 2.655 0 011.627-.508 1.637 1.637 0 011.39.6 2.679 2.679 0 01.473 1.722m-.88 1.468v-.919a2.8 2.8 0 00-1.591.329 1.015 1.015 0 00-.446.875 1.086 1.086 0 00.216.706.8.8 0 00.6.246 1.116 1.116 0 00.873-.385 1.193 1.193 0 00.352-.853M125.262 82.887l.212-.814a2.085 2.085 0 001.194.416.956.956 0 00.683-.223.761.761 0 00.235-.582.824.824 0 00-.2-.578 2.03 2.03 0 00-.687-.423 1.686 1.686 0 01-1.3-1.563 1.609 1.609 0 01.464-1.185 1.65 1.65 0 011.227-.474 2.126 2.126 0 011.208.347l-.23.769a1.723 1.723 0 00-1.016-.334.787.787 0 00-.566.209.745.745 0 00-.206.545.753.753 0 00.172.491 2.2 2.2 0 00.742.433 2.34 2.34 0 01.987.68 1.641 1.641 0 01.294.98 1.67 1.67 0 01-.5 1.24 1.88 1.88 0 01-1.327.457 2.538 2.538 0 01-1.392-.392M132.725 83.152h-.908v-4.747h-.664v-.813h.666v-.256a3.163 3.163 0 01.455-1.845 1.5 1.5 0 011.289-.651 1.658 1.658 0 01.76.167l-.107.818a1.281 1.281 0 00-.574-.121c-.617 0-.925.53-.925 1.6v.292h1.164v.813h-1.152zM139.161 80.322a3.576 3.576 0 01-.322 1.56 2.26 2.26 0 01-.883 1.033 2.286 2.286 0 01-1.242.363 2.144 2.144 0 01-1.706-.788 3.6 3.6 0 01.027-4.227 2.238 2.238 0 011.75-.8 2.112 2.112 0 011.71.793 3.1 3.1 0 01.666 2.068m-3.9.06a2.622 2.622 0 00.421 1.516 1.238 1.238 0 001.029.592 1.284 1.284 0 001.071-.6 2.581 2.581 0 00.429-1.536 2.674 2.674 0 00-.395-1.485 1.225 1.225 0 00-1.055-.617 1.239 1.239 0 00-1.1.613 2.731 2.731 0 00-.393 1.515m1.826-5.151h.992l-1.214 1.666h-.648zM140.263 83.151v-3.792c0-.721-.005-1.309-.04-1.767h.8l.064 1.105a1.975 1.975 0 01.551-.908 1.177 1.177 0 01.8-.325c.062 0 .151.012.248.02v1.011a1.232 1.232 0 00-.314-.034 1.015 1.015 0 00-.84.458 2.037 2.037 0 00-.358 1.294v2.938zM143.596 83.151V79.12c0-.623-.02-1.13-.054-1.529h.79l.077.9a1.663 1.663 0 011.535-1.031 1.276 1.276 0 01.837.293 1.8 1.8 0 01.555.831 1.789 1.789 0 011.627-1.124 1.386 1.386 0 011.16.628 3.11 3.11 0 01.455 1.829v3.234h-.892v-3.1a2.54 2.54 0 00-.269-1.277.867.867 0 00-.776-.443.979.979 0 00-.77.395 1.416 1.416 0 00-.344 1.011v3.414h-.89V79.86a2.118 2.118 0 00-.266-1.115.854.854 0 00-.739-.412 1 1 0 00-.8.454 1.607 1.607 0 00-.348 1.039v3.325zM156.11 77.591v4.026c0 .629.007 1.139.035 1.535h-.8l-.068-.947a1.743 1.743 0 01-1.629 1.073 1.419 1.419 0 01-1.223-.628 3.1 3.1 0 01-.46-1.841v-3.218h.916v3.038c0 1.175.359 1.767 1.076 1.767a1.141 1.141 0 00.878-.421 1.506 1.506 0 00.364-1.016v-3.368zM157.58 74.961h.906v8.191h-.906zM163.395 79.783v2.031a9.457 9.457 0 00.082 1.335h-.824l-.115-.712a1.663 1.663 0 01-1.493.841 1.393 1.393 0 01-1.083-.462 1.692 1.692 0 01-.4-1.133 1.772 1.772 0 01.737-1.544 3.7 3.7 0 012.184-.54v-.107a1.393 1.393 0 00-.27-.916.992.992 0 00-.818-.334 2.138 2.138 0 00-1.29.417l-.2-.691a2.632 2.632 0 011.628-.508 1.659 1.659 0 011.4.6 2.739 2.739 0 01.462 1.722m-.889 1.469v-.919a2.782 2.782 0 00-1.582.329 1.026 1.026 0 00-.449.875 1.007 1.007 0 00.23.706.752.752 0 00.588.246 1.115 1.115 0 00.867-.385 1.193 1.193 0 00.347-.853M164.486 82.887l.211-.814a2.061 2.061 0 001.192.416.933.933 0 00.674-.223.717.717 0 00.239-.582.816.816 0 00-.193-.578 2.041 2.041 0 00-.687-.423 1.684 1.684 0 01-1.3-1.563 1.608 1.608 0 011.69-1.659 2.085 2.085 0 011.206.347l-.217.769a1.77 1.77 0 00-1.01-.334.8.8 0 00-.577.209.738.738 0 00-.215.545.724.724 0 00.183.491 2.094 2.094 0 00.74.433 2.318 2.318 0 01.982.68 1.563 1.563 0 01.291.98 1.641 1.641 0 01-.486 1.24 1.892 1.892 0 01-1.33.457 2.537 2.537 0 01-1.391-.392" fill="#1b5625"/></g></svg>