<svg xmlns="http://www.w3.org/2000/svg" width="203" height="91.14"><defs><clipPath id="a"><path fill="#fff" d="M0 0h203v91.14H0z"/></clipPath></defs><g clip-path="url(#a)" fill="#fff"><path d="M10.851 50.262a10.147 10.147 0 00-7.672 3.381 12.068 12.068 0 000 16.325 10.144 10.144 0 007.672 3.382 10.016 10.016 0 006.194-2.045v2.045H21.7V61.803a11.5 11.5 0 00-3.18-8.161 10.17 10.17 0 00-7.671-3.381m4.383 16.207a5.793 5.793 0 01-4.383 1.928 5.8 5.8 0 01-4.387-1.928 6.9 6.9 0 010-9.331 5.79 5.79 0 014.387-1.922 5.788 5.788 0 014.383 1.922 6.916 6.916 0 010 9.331M51.134 50.262a10.179 10.179 0 00-7.667 3.382c-.307.324-.591.67-.853 1a12.03 12.03 0 00-.851-1 10.391 10.391 0 00-15.342 0 11.51 11.51 0 00-3.166 8.159V73.35h4.644V61.803a6.575 6.575 0 011.807-4.666 5.976 5.976 0 018.779 0 6.579 6.579 0 011.806 4.666V73.35h4.654V61.803a6.581 6.581 0 011.808-4.666 5.957 5.957 0 018.763 0 6.531 6.531 0 011.819 4.666V73.35h4.645V61.803a11.47 11.47 0 00-3.176-8.159 10.151 10.151 0 00-7.673-3.382M74.375 50.262a10 10 0 00-6.2 2.043v-6.986h-4.637v16.484a11.518 11.518 0 003.173 8.164 10.393 10.393 0 0015.343 0 12.078 12.078 0 000-16.325 10.171 10.171 0 00-7.679-3.38m4.4 16.207a5.955 5.955 0 01-8.774 0 6.906 6.906 0 010-9.331 5.967 5.967 0 018.774 0 6.926 6.926 0 010 9.331M86.78 45.318h4.648v4.943H86.78zM86.78 51.916h4.648v21.435H86.78zM103.826 50.262a10.136 10.136 0 00-7.668 3.382 12.052 12.052 0 000 16.322 10.384 10.384 0 0015.338 0 11.351 11.351 0 002.492-4.047h-5.317a4.692 4.692 0 01-.458.55 5.955 5.955 0 01-8.774 0 6.528 6.528 0 01-1.38-2.195h16.38a13.28 13.28 0 00.237-2.471 11.477 11.477 0 00-3.181-8.159 10.149 10.149 0 00-7.669-3.382m-5.767 9.072a6.465 6.465 0 011.38-2.2 5.972 5.972 0 018.774 0 6.4 6.4 0 011.375 2.2zM127.066 50.262a10.136 10.136 0 00-7.665 3.382 11.481 11.481 0 00-3.18 8.159V73.35h4.652V61.803a6.565 6.565 0 011.813-4.666 5.961 5.961 0 018.767 0 6.605 6.605 0 011.814 4.666V73.35h4.643V61.803a11.468 11.468 0 00-3.173-8.159 10.137 10.137 0 00-7.667-3.382M144.111 45.318h-4.645v16.487a11.49 11.49 0 003.179 8.162 10.141 10.141 0 007.663 3.384v-4.954a5.8 5.8 0 01-4.383-1.928 6.565 6.565 0 01-1.816-4.664v-6.588h6.2v-4.955h-6.2zM162.713 50.262a10.186 10.186 0 00-7.674 3.381 12.078 12.078 0 000 16.325 10.183 10.183 0 007.674 3.382 10.034 10.034 0 006.2-2.045v2.045h4.645V61.803a11.5 11.5 0 00-3.177-8.161 10.142 10.142 0 00-7.669-3.381m4.379 16.207a5.943 5.943 0 01-8.763 0 6.916 6.916 0 010-9.331 5.955 5.955 0 018.763 0 6.884 6.884 0 010 9.331M175.113 45.318h4.644V73.35h-4.644zM198.364 50.262v11.541a6.589 6.589 0 01-1.825 4.666 5.954 5.954 0 01-8.772 0 6.581 6.581 0 01-1.811-4.666V50.262h-4.644v11.541a11.5 11.5 0 003.17 8.163 10.159 10.159 0 007.677 3.383 10.026 10.026 0 005.253-1.4 7.212 7.212 0 01-.873 1.122 5.791 5.791 0 01-4.38 1.927v4.944a10.075 10.075 0 007.666-3.386 11.421 11.421 0 003.176-8.154v-18.14zM91.317 41.6s31.411 4.034 61.044-22.483c0 0-18.749 42.372-61.044 22.483"/><path d="M109.844 23.989a19.259 19.259 0 01-4.748 3.869c-8.412 5.274-18.144 5.991-27.759 4.342 22.6 5.106 52.46 3.185 79.682-26.324 0 0-18.275 13.3-47.176 18.112"/><path d="M41.067 16.261a126.962 126.962 0 0068.777 7.729c3.885-4.308 7.525-12.251-.595-23.989 0 0 5.559 23.4-22.2 24.714 0 0-19.974 4.137-57.361-15.895 0 0 23.469 19.226 47.653 23.382a105.228 105.228 0 01-36.274-15.941"/><path d="M41.067 16.26a105.228 105.228 0 0036.271 15.941c9.614 1.65 19.347.932 27.759-4.342a19.2 19.2 0 004.747-3.87 126.937 126.937 0 01-68.777-7.726M24.388 80.311h.962v8.255h-.962zM26.935 88.567v-4.294c0-.663-.016-1.2-.042-1.628h.857l.081 1a1.936 1.936 0 01.706-.822 1.752 1.752 0 011.006-.312 1.62 1.62 0 011.317.656 3.069 3.069 0 01.524 1.924v3.479h-.966v-3.35a2.372 2.372 0 00-.3-1.3 1.025 1.025 0 00-.9-.473 1.213 1.213 0 00-.926.464 1.646 1.646 0 00-.391 1.118v3.542zM33.104 81.537l.95-.328v1.431h1.335v.866h-1.335v3.091a1.912 1.912 0 00.163.9.614.614 0 00.546.264 1.805 1.805 0 00.548-.072l.047.861a2.269 2.269 0 01-.873.152c-.921 0-1.381-.676-1.381-2.034V83.51h-.79v-.866h.79zM40.607 85.837h-3.65a2.15 2.15 0 00.5 1.472 1.648 1.648 0 001.255.515 3.358 3.358 0 001.471-.314l.163.8a3.717 3.717 0 01-1.752.39 2.307 2.307 0 01-1.873-.827 3.217 3.217 0 01-.7-2.182 3.71 3.71 0 01.668-2.264 2.125 2.125 0 011.8-.924 1.808 1.808 0 011.6.823 3.454 3.454 0 01.557 2 3.132 3.132 0 01-.033.514m-3.635-.822h2.73a2.051 2.051 0 00-.338-1.24 1.1 1.1 0 00-.963-.468 1.222 1.222 0 00-.972.466 2.275 2.275 0 00-.468 1.24M41.8 79.842h.965v8.725H41.8zM45.428 80.846a.8.8 0 01-.174.514.589.589 0 01-.458.2.562.562 0 01-.435-.2.763.763 0 01-.178-.514.717.717 0 01.178-.508.574.574 0 01.446-.21.566.566 0 01.446.21.8.8 0 01.177.508m-.136 7.72h-.971v-5.923h.971zM51.312 84.259v3.43a3.912 3.912 0 01-.718 2.7 2.539 2.539 0 01-1.942.754 2.732 2.732 0 01-1.75-.521l.237-.865a2.532 2.532 0 001.546.49 1.514 1.514 0 001.239-.526 2.41 2.41 0 00.435-1.54l-.031-.648a1.763 1.763 0 01-1.652 1.023 1.947 1.947 0 01-1.594-.839 3.349 3.349 0 01-.632-2.061 3.565 3.565 0 01.7-2.288 2.051 2.051 0 011.652-.859 1.739 1.739 0 011.657 1.025l.035-.886h.866c-.036.348-.052.882-.052 1.615m-.967 1.722v-.97a1.821 1.821 0 00-.382-1.146 1.191 1.191 0 00-.991-.476 1.307 1.307 0 00-1.111.61 2.6 2.6 0 00-.435 1.593 2.486 2.486 0 00.42 1.492 1.307 1.307 0 001.114.587 1.276 1.276 0 00.979-.469 1.82 1.82 0 00.406-1.224M57.071 85.836h-3.654a2.219 2.219 0 00.5 1.473 1.666 1.666 0 001.26.514 3.374 3.374 0 001.47-.312l.162.8a3.708 3.708 0 01-1.751.39 2.33 2.33 0 01-1.879-.826 3.23 3.23 0 01-.693-2.183 3.724 3.724 0 01.668-2.262 2.1 2.1 0 011.79-.924 1.8 1.8 0 011.6.823 3.463 3.463 0 01.556 1.994 2.824 2.824 0 01-.035.514m-3.639-.822h2.744a2.079 2.079 0 00-.341-1.239 1.128 1.128 0 00-.962-.465 1.236 1.236 0 00-.969.465 2.349 2.349 0 00-.473 1.239m1.167-4.885h.652l1.021 1.775h-.728l-.632-1.16-.61 1.16h-.706zM58.265 88.567v-4.294c0-.663-.006-1.2-.032-1.628h.853l.087 1a2 2 0 01.694-.822 1.8 1.8 0 011.024-.312 1.631 1.631 0 011.309.656 3.068 3.068 0 01.532 1.924v3.479h-.975v-3.35a2.245 2.245 0 00-.311-1.3 1 1 0 00-.886-.473 1.2 1.2 0 00-.922.464 1.663 1.663 0 00-.4 1.118v3.542zM67.814 87.495l.148.857a3.117 3.117 0 01-1.51.35 2.321 2.321 0 01-1.87-.843 3.2 3.2 0 01-.728-2.18 3.32 3.32 0 01.783-2.288 2.528 2.528 0 012.017-.886 2.722 2.722 0 011.338.33l-.21.869a2.1 2.1 0 00-1.113-.287 1.633 1.633 0 00-1.332.606 2.452 2.452 0 00-.49 1.576 2.319 2.319 0 00.513 1.6 1.6 1.6 0 001.278.588 2.624 2.624 0 001.176-.292M70.19 80.846a.769.769 0 01-.178.514.572.572 0 01-.449.2.562.562 0 01-.441-.2.772.772 0 01-.174-.514.725.725 0 01.174-.508.58.58 0 01.456-.21.564.564 0 01.434.21.722.722 0 01.178.508m-.142 7.72h-.973v-5.923h.973zM75.282 84.979v2.164a10.1 10.1 0 00.087 1.422h-.885l-.119-.759a1.774 1.774 0 01-1.591.9 1.5 1.5 0 01-1.155-.492 1.84 1.84 0 01-.42-1.207 1.87 1.87 0 01.794-1.644 3.9 3.9 0 012.324-.575v-.114a1.473 1.473 0 00-.3-.975 1.055 1.055 0 00-.869-.356 2.22 2.22 0 00-1.374.444l-.216-.736a2.813 2.813 0 011.739-.541 1.75 1.75 0 011.481.639 2.868 2.868 0 01.5 1.834m-.941 1.563v-.979a2.928 2.928 0 00-1.69.351 1.2 1.2 0 00-.235 1.677.809.809 0 00.627.262 1.16 1.16 0 00.92-.41 1.262 1.262 0 00.384-.908M79.058 90.995v-6.412c0-.8-.014-1.439-.035-1.939h.859l.049 1.021h.026a2.009 2.009 0 011.866-1.16 1.905 1.905 0 011.579.839 3.527 3.527 0 01.631 2.163 3.681 3.681 0 01-.676 2.329 2.092 2.092 0 01-1.7.866 1.879 1.879 0 01-.941-.24 1.657 1.657 0 01-.665-.7h-.026v3.233zm.965-5.816v.943a1.768 1.768 0 00.427 1.208 1.321 1.321 0 001.016.48 1.344 1.344 0 001.163-.6 2.829 2.829 0 00.417-1.641 2.574 2.574 0 00-.417-1.539 1.311 1.311 0 00-1.939-.309 1.665 1.665 0 00-.52.742 2.314 2.314 0 00-.148.719M88.885 84.979v2.164a8.8 8.8 0 00.091 1.422h-.886l-.117-.759a1.765 1.765 0 01-1.585.9 1.48 1.48 0 01-1.158-.492 1.774 1.774 0 01-.426-1.207 1.877 1.877 0 01.8-1.644 3.9 3.9 0 012.327-.575v-.114a1.487 1.487 0 00-.3-.975 1.041 1.041 0 00-.873-.356 2.283 2.283 0 00-1.37.444l-.22-.736a2.844 2.844 0 011.738-.541 1.749 1.749 0 011.485.639 2.9 2.9 0 01.5 1.834m-.937 1.563v-.979a2.969 2.969 0 00-1.692.351 1.076 1.076 0 00-.479.932 1.115 1.115 0 00.234.752.84.84 0 00.631.262 1.19 1.19 0 00.924-.41 1.255 1.255 0 00.382-.908M90.397 88.567v-4.04c0-.768-.015-1.395-.039-1.882h.842l.069 1.177a2.192 2.192 0 01.594-.967 1.288 1.288 0 01.86-.346c.066 0 .145.013.26.022v1.075a1.379 1.379 0 00-.336-.036 1.114 1.114 0 00-.9.488 2.2 2.2 0 00-.376 1.379v3.131zM97.554 84.979v2.164a10.249 10.249 0 00.088 1.422h-.883l-.118-.759a1.766 1.766 0 01-1.585.9 1.456 1.456 0 01-1.153-.492 1.808 1.808 0 01-.433-1.207 1.883 1.883 0 01.8-1.644 3.922 3.922 0 012.327-.575v-.114a1.449 1.449 0 00-.3-.975 1.04 1.04 0 00-.873-.356 2.216 2.216 0 00-1.364.444l-.227-.736a2.848 2.848 0 011.744-.541 1.766 1.766 0 011.482.639 2.9 2.9 0 01.5 1.834m-.946 1.563v-.979a2.983 2.983 0 00-1.686.351 1.21 1.21 0 00-.242 1.684.826.826 0 00.626.262 1.19 1.19 0 00.93-.41 1.264 1.264 0 00.373-.908M101.527 81.537l.95-.328v1.431h1.339v.866h-1.336v3.091a1.7 1.7 0 00.171.9.587.587 0 00.536.264 1.886 1.886 0 00.555-.072l.034.861a2.159 2.159 0 01-.859.152c-.926 0-1.387-.676-1.387-2.034V83.51h-.791v-.866h.788zM109.58 85.551a3.719 3.719 0 01-.35 1.662 2.378 2.378 0 01-.937 1.1 2.408 2.408 0 01-1.313.386 2.3 2.3 0 01-1.821-.841 3.305 3.305 0 01-.719-2.208 3.387 3.387 0 01.737-2.294 2.394 2.394 0 011.875-.852 2.284 2.284 0 011.824.843 3.314 3.314 0 01.7 2.2m-4.152.066a2.784 2.784 0 00.441 1.615 1.34 1.34 0 001.112.629 1.359 1.359 0 001.134-.642 2.68 2.68 0 00.455-1.633 2.911 2.911 0 00-.41-1.584 1.32 1.32 0 00-1.15-.653 1.3 1.3 0 00-1.152.653 2.853 2.853 0 00-.43 1.615M114.317 79.841h.968v7.174q0 .986.041 1.551h-.868l-.071-1.055a1.9 1.9 0 01-1.773 1.192 1.97 1.97 0 01-1.609-.844 3.571 3.571 0 01-.638-2.167 3.668 3.668 0 01.678-2.295 2.011 2.011 0 011.672-.891 1.922 1.922 0 01.953.243 1.718 1.718 0 01.646.668zm0 6.181v-.943a1.773 1.773 0 00-.411-1.216 1.256 1.256 0 00-.989-.45 1.3 1.3 0 00-1.138.61 2.821 2.821 0 00-.428 1.6 2.739 2.739 0 00.409 1.546 1.277 1.277 0 001.136.613 1.309 1.309 0 00.987-.485 1.817 1.817 0 00.435-1.277M120.529 84.979v2.164a9.2 9.2 0 00.084 1.422h-.883l-.113-.759a1.781 1.781 0 01-1.6.9 1.483 1.483 0 01-1.154-.492 1.812 1.812 0 01-.423-1.207 1.89 1.89 0 01.792-1.644 3.919 3.919 0 012.321-.575v-.114a1.491 1.491 0 00-.292-.975 1.043 1.043 0 00-.866-.356 2.247 2.247 0 00-1.373.444l-.224-.736a2.828 2.828 0 011.735-.541 1.756 1.756 0 011.488.639 2.9 2.9 0 01.5 1.834m-.949 1.563v-.979a2.936 2.936 0 00-1.681.351 1.081 1.081 0 00-.481.932 1.1 1.1 0 00.237.752.819.819 0 00.628.262 1.164 1.164 0 00.921-.41 1.24 1.24 0 00.376-.908M121.69 88.284l.228-.867a2.186 2.186 0 001.267.443 1.015 1.015 0 00.725-.237.775.775 0 00.255-.62.9.9 0 00-.21-.615 2.188 2.188 0 00-.743-.45 1.792 1.792 0 01-1.374-1.665 1.706 1.706 0 011.795-1.767 2.257 2.257 0 011.29.369l-.243.819a1.853 1.853 0 00-1.079-.355.849.849 0 00-.61.222.842.842 0 00-.032 1.1 2.331 2.331 0 00.779.461 2.439 2.439 0 011.053.725 1.7 1.7 0 01.324 1.044 1.778 1.778 0 01-.53 1.321 2 2 0 01-1.414.487 2.73 2.73 0 01-1.481-.417M132.26 84.979v2.164a10.91 10.91 0 00.084 1.422h-.88l-.121-.759a1.758 1.758 0 01-1.584.9 1.464 1.464 0 01-1.15-.492 1.79 1.79 0 01-.432-1.207 1.9 1.9 0 01.793-1.644 3.934 3.934 0 012.327-.575v-.114a1.492 1.492 0 00-.3-.975 1.044 1.044 0 00-.872-.356 2.261 2.261 0 00-1.368.444l-.219-.736a2.828 2.828 0 011.733-.541 1.743 1.743 0 011.48.639 2.854 2.854 0 01.5 1.834m-.938 1.563v-.979a2.983 2.983 0 00-1.694.351 1.081 1.081 0 00-.475.932 1.157 1.157 0 00.23.752.848.848 0 00.635.262 1.188 1.188 0 00.93-.41 1.271 1.271 0 00.375-.908M133.419 88.284l.226-.867a2.221 2.221 0 001.272.443 1.019 1.019 0 00.727-.237.81.81 0 00.251-.62.877.877 0 00-.21-.615 2.163 2.163 0 00-.732-.45 1.8 1.8 0 01-1.386-1.665 1.714 1.714 0 01.495-1.262 1.758 1.758 0 011.307-.5 2.264 2.264 0 011.286.369l-.245.819a1.835 1.835 0 00-1.084-.36.838.838 0 00-.6.222.793.793 0 00-.22.58.8.8 0 00.183.523 2.339 2.339 0 00.791.461 2.492 2.492 0 011.052.725 1.748 1.748 0 01.313 1.044 1.778 1.778 0 01-.53 1.321 2 2 0 01-1.413.487 2.7 2.7 0 01-1.482-.417M141.367 88.567h-.967v-5.056h-.71v-.866h.71v-.272a3.369 3.369 0 01.484-1.965 1.6 1.6 0 011.373-.694 1.766 1.766 0 01.809.178l-.114.872a1.365 1.365 0 00-.612-.129c-.657 0-.986.564-.986 1.7v.311h1.24v.866h-1.227zM148.225 85.553a3.809 3.809 0 01-.343 1.661 2.407 2.407 0 01-.94 1.1 2.435 2.435 0 01-1.323.386 2.283 2.283 0 01-1.817-.84 3.836 3.836 0 01.028-4.5 2.384 2.384 0 011.864-.853 2.25 2.25 0 011.821.844 3.3 3.3 0 01.71 2.2m-4.151.064a2.793 2.793 0 00.449 1.615 1.318 1.318 0 001.1.63 1.367 1.367 0 001.141-.64 2.749 2.749 0 00.457-1.636 2.848 2.848 0 00-.42-1.582 1.3 1.3 0 00-1.134-.653 1.32 1.32 0 00-1.17.653 2.909 2.909 0 00-.418 1.613m1.945-5.486h1.056l-1.298 1.776h-.69zM149.396 88.567v-4.04c0-.768-.006-1.395-.042-1.882h.857l.065 1.177a2.1 2.1 0 01.587-.967 1.254 1.254 0 01.848-.346c.066 0 .161.013.264.022v1.075a1.312 1.312 0 00-.335-.036 1.081 1.081 0 00-.894.488 2.17 2.17 0 00-.382 1.379v3.131zM152.946 88.567v-4.294c0-.663-.022-1.2-.057-1.628h.841l.082.962a1.771 1.771 0 011.635-1.1 1.359 1.359 0 01.891.312 1.919 1.919 0 01.591.885 1.905 1.905 0 011.733-1.2 1.476 1.476 0 011.235.669 3.313 3.313 0 01.484 1.948v3.442h-.95v-3.3a2.705 2.705 0 00-.286-1.36.923.923 0 00-.826-.472 1.042 1.042 0 00-.82.42 1.509 1.509 0 00-.367 1.077v3.635h-.948v-3.502a2.256 2.256 0 00-.284-1.187.909.909 0 00-.787-.439 1.061 1.061 0 00-.857.483 1.712 1.712 0 00-.37 1.106v3.542zM166.279 82.643v4.288c0 .67.008 1.213.038 1.635h-.855l-.073-1.008a1.857 1.857 0 01-1.735 1.143 1.511 1.511 0 01-1.3-.669 3.3 3.3 0 01-.49-1.961v-3.428h.975v3.236c0 1.251.383 1.882 1.146 1.882a1.215 1.215 0 00.935-.449 1.6 1.6 0 00.387-1.082v-3.587zM167.841 79.842h.965v8.725h-.965zM174.034 84.979v2.164a10.072 10.072 0 00.088 1.422h-.877l-.122-.759a1.771 1.771 0 01-1.591.9 1.484 1.484 0 01-1.153-.492 1.8 1.8 0 01-.425-1.207 1.888 1.888 0 01.785-1.644 3.946 3.946 0 012.327-.575v-.114a1.484 1.484 0 00-.287-.975 1.057 1.057 0 00-.872-.356 2.277 2.277 0 00-1.374.444l-.214-.736a2.8 2.8 0 011.734-.541 1.767 1.767 0 011.489.639 2.918 2.918 0 01.492 1.834m-.947 1.563v-.979a2.963 2.963 0 00-1.685.351 1.092 1.092 0 00-.479.932 1.073 1.073 0 00.245.752.8.8 0 00.627.262 1.187 1.187 0 00.923-.41 1.27 1.27 0 00.369-.908M175.197 88.284l.224-.867a2.2 2.2 0 001.269.443.993.993 0 00.718-.237.764.764 0 00.254-.62.869.869 0 00-.205-.615 2.175 2.175 0 00-.731-.45 1.793 1.793 0 01-1.388-1.665 1.713 1.713 0 011.8-1.767 2.221 2.221 0 011.284.369l-.231.819a1.885 1.885 0 00-1.076-.355.853.853 0 00-.614.222.786.786 0 00-.229.58.771.771 0 00.195.523 2.231 2.231 0 00.788.461 2.469 2.469 0 011.046.725 1.665 1.665 0 01.31 1.044 1.748 1.748 0 01-.517 1.321 2.015 2.015 0 01-1.416.487 2.7 2.7 0 01-1.481-.417"/></g></svg>