<svg xmlns="http://www.w3.org/2000/svg" xmlns:xlink="http://www.w3.org/1999/xlink" width="37" height="36" viewBox="0 0 37 36"><defs><clipPath id="a"><rect width="18.003" height="18.21" fill="#fff"/></clipPath></defs><g transform="translate(-1600 -60)"><rect width="37" height="36" rx="6" transform="translate(1600 60)" fill="#00335a"/><g transform="translate(1609.645 68.331)"><g clip-path="url(#a)"><path d="M104.593,104.51H101.04V92.482h3.542v1.711c.1-.113.15-.164.191-.223a4.339,4.339,0,0,1,7.423.411,4.668,4.668,0,0,1,.519,2.348c-.011.7-.014,1.4-.015,2.094,0,1.887,0,3.774,0,5.688h-3.556c0-.118,0-.231,0-.344q0-3.035-.006-6.07a2.2,2.2,0,0,0-1.094-1.986,2.268,2.268,0,0,0-3.45,1.939c-.012,2.023,0,4.047,0,6.07Z" transform="translate(-94.715 -86.307)" fill="#fff"/><rect width="3.536" height="12.034" transform="translate(0.387 6.176)" fill="#fff"/><path d="M4.3,2.167A2.165,2.165,0,0,1,2.127,4.293,2.166,2.166,0,0,1,0,2.12a2.151,2.151,0,0,1,4.3.047" transform="translate(0.001 0)" fill="#fff"/></g></g></g></svg>
