<svg xmlns="http://www.w3.org/2000/svg" width="37" height="36" viewBox="0 0 37 36"><g transform="translate(-1600 -60)"><rect width="37" height="36" rx="6" transform="translate(1600 60)" fill="#00335a"/></g><g transform="translate(9 8)"><path d="M13.733,0H6.267A6.259,6.259,0,0,0,0,6.267v7.511A6.25,6.25,0,0,0,6.267,20h7.511A6.25,6.25,0,0,0,20,13.733V6.267A6.259,6.259,0,0,0,13.733,0Zm4.4,13.733a4.363,4.363,0,0,1-4.356,4.356H6.267a4.363,4.363,0,0,1-4.356-4.356V6.267A4.363,4.363,0,0,1,6.267,1.911h7.511a4.363,4.363,0,0,1,4.356,4.356Z" fill="#fff"/><path d="M16.278,11.2A5,5,0,1,0,21.3,16.222,5.075,5.075,0,0,0,16.278,11.2Zm0,8.133a3.111,3.111,0,1,1,3.111-3.111A3.092,3.092,0,0,1,16.278,19.333Z" transform="translate(-6.278 -6.222)" fill="#fff"/><circle cx="0.667" cy="0.667" r="0.667" transform="translate(14.711 3.956)" fill="#fff"/></g></svg>