<svg xmlns="http://www.w3.org/2000/svg" xmlns:xlink="http://www.w3.org/1999/xlink" width="35" height="14" viewBox="0 0 35 14"><defs><clipPath id="a"><rect width="35" height="14" fill="#004272"/></clipPath></defs><g transform="translate(0 0)" clip-path="url(#a)"><path d="M34.343,16.387H.658A.695.695,0,0,1,.658,15H34.343a.695.695,0,0,1,0,1.387" transform="translate(0 -8.694)" fill="#004272"/><path d="M70.192,22.694a.639.639,0,0,1-.465-.2.721.721,0,0,1,0-.981L75.7,15.2a.634.634,0,0,1,.93,0,.721.721,0,0,1,0,.981l-5.977,6.306a.639.639,0,0,1-.465.2" transform="translate(-41.827 -8.694)" fill="#004272"/><path d="M76.169,7.694a.639.639,0,0,1-.465-.2L69.727,1.185a.72.72,0,0,1,0-.981.634.634,0,0,1,.93,0L76.634,6.51a.721.721,0,0,1,0,.981.639.639,0,0,1-.465.2" transform="translate(-41.827 0)" fill="#004272"/></g></svg>