<svg xmlns="http://www.w3.org/2000/svg" xmlns:xlink="http://www.w3.org/1999/xlink" width="190.589" height="85.568" viewBox="0 0 190.589 85.568"><defs><clipPath id="a"><rect width="190.589" height="85.568" fill="none"/></clipPath></defs><g clip-path="url(#a)"><path d="M10.187,44.112a9.526,9.526,0,0,0-7.2,3.174,11.33,11.33,0,0,0,0,15.327,9.524,9.524,0,0,0,7.2,3.175A9.4,9.4,0,0,0,16,63.867v1.92h4.372V54.948a10.8,10.8,0,0,0-2.986-7.662,9.549,9.549,0,0,0-7.2-3.174M14.3,59.328a5.439,5.439,0,0,1-4.115,1.81,5.441,5.441,0,0,1-4.119-1.81,6.481,6.481,0,0,1,0-8.76,5.436,5.436,0,0,1,4.119-1.8,5.434,5.434,0,0,1,4.115,1.8,6.493,6.493,0,0,1,0,8.76" transform="translate(0 3.077)" fill="#004272"/><path d="M46.584,44.112a9.557,9.557,0,0,0-7.2,3.175c-.288.3-.555.629-.8.939a11.3,11.3,0,0,0-.8-.939,9.756,9.756,0,0,0-14.4,0,10.807,10.807,0,0,0-2.973,7.661v10.84h4.36V54.948a6.173,6.173,0,0,1,1.7-4.381,5.61,5.61,0,0,1,8.243,0,6.176,6.176,0,0,1,1.7,4.381v10.84h4.372V54.948a6.178,6.178,0,0,1,1.7-4.381,5.593,5.593,0,0,1,8.228,0,6.132,6.132,0,0,1,1.707,4.381v10.84h4.361V54.948a10.768,10.768,0,0,0-2.981-7.661,9.53,9.53,0,0,0-7.2-3.175" transform="translate(1.424 3.077)" fill="#004272"/><path d="M65.942,44.415a9.388,9.388,0,0,0-5.816,1.918V39.774H55.763V55.25a10.813,10.813,0,0,0,2.979,7.665,9.757,9.757,0,0,0,14.405,0,11.339,11.339,0,0,0,0-15.327,9.549,9.549,0,0,0-7.206-3.174m4.124,15.216a5.591,5.591,0,0,1-8.237,0,6.484,6.484,0,0,1,0-8.76,5.6,5.6,0,0,1,8.237,0,6.5,6.5,0,0,1,0,8.76" transform="translate(3.89 2.774)" fill="#004272"/><rect width="4.364" height="4.641" transform="translate(81.474 42.548)" fill="#004272"/><rect width="4.364" height="20.124" transform="translate(81.474 48.742)" fill="#004272"/><path d="M91.785,44.112a9.516,9.516,0,0,0-7.2,3.175,11.316,11.316,0,0,0,0,15.324,9.749,9.749,0,0,0,14.4,0,10.657,10.657,0,0,0,2.34-3.8H96.334a4.4,4.4,0,0,1-.43.517,5.591,5.591,0,0,1-8.237,0,6.129,6.129,0,0,1-1.3-2.06H101.75a12.469,12.469,0,0,0,.223-2.32,10.775,10.775,0,0,0-2.987-7.661,9.528,9.528,0,0,0-7.2-3.175m-5.414,8.517a6.07,6.07,0,0,1,1.3-2.064,5.607,5.607,0,0,1,8.237,0A6.009,6.009,0,0,1,97.2,52.629Z" transform="translate(5.693 3.077)" fill="#004272"/><path d="M112.182,44.112a9.516,9.516,0,0,0-7.2,3.175A10.779,10.779,0,0,0,102,54.948v10.84h4.368V54.948a6.164,6.164,0,0,1,1.7-4.381,5.6,5.6,0,0,1,8.231,0,6.2,6.2,0,0,1,1.7,4.381v10.84h4.359V54.948a10.767,10.767,0,0,0-2.979-7.661,9.517,9.517,0,0,0-7.2-3.175" transform="translate(7.116 3.077)" fill="#004272"/><path d="M126.761,39.773H122.4V55.252a10.787,10.787,0,0,0,2.985,7.663,9.521,9.521,0,0,0,7.194,3.177V61.441a5.447,5.447,0,0,1-4.115-1.81,6.163,6.163,0,0,1-1.705-4.379V49.067h5.821V44.415h-5.821Z" transform="translate(8.539 2.774)" fill="#004272"/><path d="M143.466,44.112a9.564,9.564,0,0,0-7.2,3.174,11.339,11.339,0,0,0,0,15.327,9.561,9.561,0,0,0,7.2,3.175,9.42,9.42,0,0,0,5.822-1.92v1.92h4.361V54.948a10.794,10.794,0,0,0-2.982-7.662,9.522,9.522,0,0,0-7.2-3.174m4.111,15.216a5.58,5.58,0,0,1-8.228,0,6.493,6.493,0,0,1,0-8.76,5.591,5.591,0,0,1,8.228,0,6.463,6.463,0,0,1,0,8.76" transform="translate(9.298 3.077)" fill="#004272"/><rect width="4.36" height="26.318" transform="translate(164.407 42.548)" fill="#004272"/><path d="M175.135,44.112V54.948a6.186,6.186,0,0,1-1.714,4.381,5.59,5.59,0,0,1-8.236,0,6.179,6.179,0,0,1-1.7-4.381V44.112h-4.36V54.948a10.793,10.793,0,0,0,2.976,7.664,9.538,9.538,0,0,0,7.208,3.176,9.413,9.413,0,0,0,4.932-1.319,6.772,6.772,0,0,1-.819,1.054,5.437,5.437,0,0,1-4.112,1.809v4.642a9.459,9.459,0,0,0,7.2-3.179,10.723,10.723,0,0,0,2.981-7.655V44.112Z" transform="translate(11.101 3.077)" fill="#004272"/><path d="M80.143,37.887s29.49,3.787,57.312-21.109c0,0-17.6,39.781-57.312,21.109" transform="translate(5.591 1.17)" fill="#1b5625"/><path d="M98.393,22.163A18.082,18.082,0,0,1,93.936,25.8c-7.9,4.952-17.035,5.625-26.062,4.077,21.217,4.794,49.253,2.99,74.811-24.715,0,0-17.158,12.485-44.291,17" transform="translate(4.735 0.359)" fill="#469826"/><path d="M36.739,15.267a119.2,119.2,0,0,0,64.572,7.256c3.648-4.045,7.065-11.5-.558-22.523,0,0,5.219,21.971-20.845,23.2,0,0-18.753,3.884-53.854-14.923,0,0,22.034,18.05,44.74,21.953A98.8,98.8,0,0,1,36.739,15.267" transform="translate(1.818 0)" fill="#8eb314"/><path d="M36.042,14.271A98.8,98.8,0,0,0,70.1,29.237c9.027,1.549,18.165.875,26.062-4.077a18.03,18.03,0,0,0,4.457-3.635,119.176,119.176,0,0,1-64.572-7.254" transform="translate(2.514 0.995)" fill="#1b5625"/><rect width="0.903" height="7.75" transform="translate(22.897 75.401)" fill="#1b5625"/><path d="M23.642,78.1V74.069c0-.623-.015-1.13-.04-1.529h.8l.076.936a1.818,1.818,0,0,1,.663-.771,1.645,1.645,0,0,1,.945-.293,1.52,1.52,0,0,1,1.237.616,2.881,2.881,0,0,1,.492,1.807V78.1h-.907V74.958a2.227,2.227,0,0,0-.28-1.224.962.962,0,0,0-.842-.444,1.139,1.139,0,0,0-.87.435,1.546,1.546,0,0,0-.367,1.049V78.1Z" transform="translate(1.647 5.051)" fill="#1b5625"/><path d="M29.1,71.584l.892-.308V72.62h1.254v.813H29.994v2.9a1.8,1.8,0,0,0,.153.845.576.576,0,0,0,.512.248,1.7,1.7,0,0,0,.515-.067l.044.809a2.13,2.13,0,0,1-.819.142c-.864,0-1.3-.634-1.3-1.91V73.433H28.36V72.62H29.1Z" transform="translate(1.979 4.972)" fill="#1b5625"/><path d="M35.918,75.538H32.491a2.019,2.019,0,0,0,.47,1.382,1.547,1.547,0,0,0,1.178.484,3.153,3.153,0,0,0,1.381-.3l.153.753a3.489,3.489,0,0,1-1.645.366,2.166,2.166,0,0,1-1.759-.777A3.02,3.02,0,0,1,31.61,75.4a3.484,3.484,0,0,1,.627-2.126,2,2,0,0,1,1.688-.868,1.7,1.7,0,0,1,1.5.772,3.243,3.243,0,0,1,.523,1.874,2.94,2.94,0,0,1-.031.482m-3.413-.771h2.563a1.926,1.926,0,0,0-.318-1.164,1.035,1.035,0,0,0-.893-.438,1.148,1.148,0,0,0-.913.438,2.136,2.136,0,0,0-.44,1.164" transform="translate(2.205 5.051)" fill="#1b5625"/><rect width="0.906" height="8.191" transform="translate(39.244 74.961)" fill="#1b5625"/><path d="M39.946,71a.748.748,0,0,1-.164.482.553.553,0,0,1-.43.187.528.528,0,0,1-.409-.187A.716.716,0,0,1,38.777,71a.673.673,0,0,1,.167-.477.539.539,0,0,1,.418-.2.531.531,0,0,1,.418.2.748.748,0,0,1,.166.477m-.127,7.248h-.911V72.685h.911Z" transform="translate(2.705 4.906)" fill="#1b5625"/><path d="M45.331,74.056v3.22a3.673,3.673,0,0,1-.674,2.532,2.384,2.384,0,0,1-1.823.708,2.565,2.565,0,0,1-1.643-.489l.223-.812a2.378,2.378,0,0,0,1.452.46,1.422,1.422,0,0,0,1.163-.494,2.262,2.262,0,0,0,.409-1.446l-.029-.609a1.655,1.655,0,0,1-1.551.961,1.828,1.828,0,0,1-1.5-.787,3.144,3.144,0,0,1-.594-1.935,3.347,3.347,0,0,1,.661-2.148,1.926,1.926,0,0,1,1.551-.807,1.633,1.633,0,0,1,1.555.963l.033-.832h.813c-.034.326-.049.828-.049,1.516m-.908,1.616v-.906a1.71,1.71,0,0,0-.358-1.076,1.118,1.118,0,0,0-.931-.447,1.227,1.227,0,0,0-1.043.572,2.445,2.445,0,0,0-.409,1.5,2.334,2.334,0,0,0,.395,1.4,1.227,1.227,0,0,0,1.046.551,1.2,1.2,0,0,0,.919-.441,1.708,1.708,0,0,0,.381-1.149" transform="translate(2.844 5.051)" fill="#1b5625"/><path d="M50.368,75.682H46.938a2.084,2.084,0,0,0,.474,1.383,1.564,1.564,0,0,0,1.183.482,3.168,3.168,0,0,0,1.38-.293l.152.751a3.481,3.481,0,0,1-1.644.366,2.188,2.188,0,0,1-1.764-.776,3.032,3.032,0,0,1-.65-2.05,3.5,3.5,0,0,1,.627-2.123,1.972,1.972,0,0,1,1.681-.868,1.691,1.691,0,0,1,1.5.772A3.251,3.251,0,0,1,50.4,75.2a2.651,2.651,0,0,1-.033.482m-3.417-.771h2.576a1.952,1.952,0,0,0-.32-1.163,1.059,1.059,0,0,0-.9-.436,1.161,1.161,0,0,0-.909.436,2.2,2.2,0,0,0-.444,1.163m1.1-4.586h.612l.952,1.666h-.684L48.334,70.9l-.572,1.089H47.1Z" transform="translate(3.214 4.906)" fill="#1b5625"/><path d="M51.137,78.1V74.069c0-.623-.005-1.13-.03-1.529h.8l.081.936a1.874,1.874,0,0,1,.651-.771,1.691,1.691,0,0,1,.962-.293,1.531,1.531,0,0,1,1.229.616,2.881,2.881,0,0,1,.5,1.807V78.1h-.916V74.958a2.108,2.108,0,0,0-.292-1.224.939.939,0,0,0-.832-.444,1.125,1.125,0,0,0-.865.435,1.561,1.561,0,0,0-.38,1.049V78.1Z" transform="translate(3.565 5.051)" fill="#1b5625"/><path d="M59.759,77.1l.139.8a2.927,2.927,0,0,1-1.417.328,2.18,2.18,0,0,1-1.755-.792,3.008,3.008,0,0,1-.684-2.046,3.117,3.117,0,0,1,.735-2.148,2.374,2.374,0,0,1,1.893-.832,2.555,2.555,0,0,1,1.256.31l-.2.816a1.971,1.971,0,0,0-1.045-.27,1.533,1.533,0,0,0-1.251.569,2.3,2.3,0,0,0-.46,1.479,2.177,2.177,0,0,0,.481,1.5,1.5,1.5,0,0,0,1.2.552,2.463,2.463,0,0,0,1.1-.271" transform="translate(3.91 5.051)" fill="#1b5625"/><path d="M61.677,71a.722.722,0,0,1-.167.482.537.537,0,0,1-.421.187.528.528,0,0,1-.414-.187A.725.725,0,0,1,60.511,71a.681.681,0,0,1,.164-.477.544.544,0,0,1,.428-.2.529.529,0,0,1,.408.2.678.678,0,0,1,.167.477m-.134,7.248H60.63V72.685h.914Z" transform="translate(4.222 4.906)" fill="#1b5625"/><path d="M66.32,74.732v2.031A9.48,9.48,0,0,0,66.4,78.1H65.57l-.111-.712a1.666,1.666,0,0,1-1.493.841,1.406,1.406,0,0,1-1.085-.462,1.727,1.727,0,0,1-.395-1.133,1.756,1.756,0,0,1,.746-1.544,3.666,3.666,0,0,1,2.182-.54v-.107a1.383,1.383,0,0,0-.279-.916.99.99,0,0,0-.816-.334,2.084,2.084,0,0,0-1.29.417l-.2-.691a2.641,2.641,0,0,1,1.632-.508,1.643,1.643,0,0,1,1.391.6,2.692,2.692,0,0,1,.472,1.722M65.436,76.2v-.919a2.749,2.749,0,0,0-1.586.329,1.126,1.126,0,0,0-.226,1.581.76.76,0,0,0,.588.246,1.089,1.089,0,0,0,.863-.385,1.185,1.185,0,0,0,.361-.853" transform="translate(4.359 5.051)" fill="#1b5625"/><path d="M69.386,80.378V74.361c0-.752-.013-1.351-.033-1.821h.807l.046.959h.025a1.886,1.886,0,0,1,1.752-1.089,1.789,1.789,0,0,1,1.483.787,3.312,3.312,0,0,1,.593,2.03,3.456,3.456,0,0,1-.634,2.187,1.965,1.965,0,0,1-1.6.813A1.764,1.764,0,0,1,70.942,78a1.556,1.556,0,0,1-.625-.657h-.025v3.033Zm.906-5.46V75.8a1.66,1.66,0,0,0,.4,1.134,1.24,1.24,0,0,0,.954.45,1.262,1.262,0,0,0,1.092-.566,2.656,2.656,0,0,0,.392-1.54,2.417,2.417,0,0,0-.392-1.445,1.231,1.231,0,0,0-1.821-.29,1.563,1.563,0,0,0-.488.7,2.172,2.172,0,0,0-.139.675" transform="translate(4.838 5.051)" fill="#1b5625"/><path d="M78.259,74.732v2.031a8.257,8.257,0,0,0,.086,1.335h-.832l-.11-.712a1.657,1.657,0,0,1-1.488.841,1.39,1.39,0,0,1-1.087-.462,1.666,1.666,0,0,1-.4-1.133,1.762,1.762,0,0,1,.75-1.544,3.664,3.664,0,0,1,2.184-.54v-.107a1.4,1.4,0,0,0-.285-.916.978.978,0,0,0-.819-.334,2.144,2.144,0,0,0-1.286.417l-.206-.691A2.67,2.67,0,0,1,76.4,72.41a1.642,1.642,0,0,1,1.394.6,2.719,2.719,0,0,1,.469,1.722M77.38,76.2v-.919a2.788,2.788,0,0,0-1.589.329,1.011,1.011,0,0,0-.449.875,1.046,1.046,0,0,0,.219.706.789.789,0,0,0,.593.246,1.117,1.117,0,0,0,.868-.385,1.178,1.178,0,0,0,.358-.853" transform="translate(5.192 5.051)" fill="#1b5625"/><path d="M79.337,78.1V74.308c0-.721-.014-1.309-.036-1.767h.791l.065,1.105a2.058,2.058,0,0,1,.557-.908,1.209,1.209,0,0,1,.808-.325c.062,0,.136.012.244.02v1.011a1.3,1.3,0,0,0-.316-.034,1.046,1.046,0,0,0-.847.458,2.064,2.064,0,0,0-.353,1.294V78.1Z" transform="translate(5.532 5.051)" fill="#1b5625"/><path d="M85.867,74.732v2.031a9.622,9.622,0,0,0,.082,1.335H85.12l-.111-.712a1.658,1.658,0,0,1-1.488.841,1.367,1.367,0,0,1-1.083-.462,1.7,1.7,0,0,1-.407-1.133,1.768,1.768,0,0,1,.748-1.544,3.682,3.682,0,0,1,2.184-.54v-.107a1.361,1.361,0,0,0-.281-.916.976.976,0,0,0-.819-.334,2.081,2.081,0,0,0-1.281.417l-.213-.691a2.674,2.674,0,0,1,1.638-.508,1.658,1.658,0,0,1,1.392.6,2.725,2.725,0,0,1,.467,1.722M84.979,76.2v-.919a2.8,2.8,0,0,0-1.583.329,1.136,1.136,0,0,0-.227,1.581.775.775,0,0,0,.587.246,1.117,1.117,0,0,0,.873-.385,1.187,1.187,0,0,0,.35-.853" transform="translate(5.723 5.051)" fill="#1b5625"/><path d="M89.154,71.584l.892-.308V72.62H91.3v.813H90.047v2.9a1.6,1.6,0,0,0,.16.845.551.551,0,0,0,.5.248,1.77,1.77,0,0,0,.521-.067l.032.809a2.027,2.027,0,0,1-.807.142c-.87,0-1.3-.634-1.3-1.91V73.433h-.742V72.62h.742Z" transform="translate(6.168 4.972)" fill="#1b5625"/><path d="M96.488,75.269a3.492,3.492,0,0,1-.328,1.561,2.233,2.233,0,0,1-.879,1.034,2.261,2.261,0,0,1-1.232.363,2.155,2.155,0,0,1-1.709-.79,3.1,3.1,0,0,1-.675-2.073,3.179,3.179,0,0,1,.692-2.153,2.248,2.248,0,0,1,1.761-.8,2.144,2.144,0,0,1,1.713.792,3.111,3.111,0,0,1,.659,2.067m-3.9.062A2.614,2.614,0,0,0,93,76.847a1.258,1.258,0,0,0,1.044.59,1.276,1.276,0,0,0,1.064-.6,2.516,2.516,0,0,0,.427-1.533,2.733,2.733,0,0,0-.385-1.487,1.24,1.24,0,0,0-1.079-.613,1.218,1.218,0,0,0-1.082.613,2.679,2.679,0,0,0-.4,1.516" transform="translate(6.395 5.051)" fill="#1b5625"/><path d="M100.571,70.072h.909v6.735q0,.926.038,1.456H100.7l-.066-.991a1.785,1.785,0,0,1-1.665,1.119,1.85,1.85,0,0,1-1.509-.792,3.353,3.353,0,0,1-.6-2.035,3.444,3.444,0,0,1,.637-2.155,1.888,1.888,0,0,1,1.569-.837,1.8,1.8,0,0,1,.894.228,1.613,1.613,0,0,1,.607.627Zm0,5.8V74.99a1.665,1.665,0,0,0-.386-1.141,1.179,1.179,0,0,0-.929-.423A1.223,1.223,0,0,0,98.187,74a2.649,2.649,0,0,0-.4,1.505,2.571,2.571,0,0,0,.384,1.452,1.2,1.2,0,0,0,1.067.576,1.229,1.229,0,0,0,.926-.456,1.706,1.706,0,0,0,.409-1.2" transform="translate(6.758 4.888)" fill="#1b5625"/><path d="M106.03,74.732v2.031a8.641,8.641,0,0,0,.079,1.335h-.829l-.106-.712a1.672,1.672,0,0,1-1.5.841,1.392,1.392,0,0,1-1.084-.462,1.7,1.7,0,0,1-.4-1.133,1.774,1.774,0,0,1,.743-1.544,3.679,3.679,0,0,1,2.179-.54v-.107a1.4,1.4,0,0,0-.274-.916.98.98,0,0,0-.813-.334,2.11,2.11,0,0,0-1.289.417l-.211-.691a2.655,2.655,0,0,1,1.629-.508,1.649,1.649,0,0,1,1.4.6,2.725,2.725,0,0,1,.472,1.722m-.891,1.468v-.919a2.756,2.756,0,0,0-1.578.329,1.015,1.015,0,0,0-.451.875,1.031,1.031,0,0,0,.223.706.768.768,0,0,0,.589.246,1.092,1.092,0,0,0,.864-.385,1.164,1.164,0,0,0,.353-.853" transform="translate(7.13 5.051)" fill="#1b5625"/><path d="M106.8,77.836l.214-.814a2.052,2.052,0,0,0,1.19.416.953.953,0,0,0,.68-.223.728.728,0,0,0,.24-.582.844.844,0,0,0-.2-.578,2.054,2.054,0,0,0-.7-.423,1.683,1.683,0,0,1-1.29-1.563,1.6,1.6,0,0,1,1.685-1.659,2.119,2.119,0,0,1,1.211.347l-.228.769a1.74,1.74,0,0,0-1.013-.334.8.8,0,0,0-.572.209.79.79,0,0,0-.03,1.036,2.189,2.189,0,0,0,.732.433,2.29,2.29,0,0,1,.988.68,1.6,1.6,0,0,1,.3.98,1.669,1.669,0,0,1-.5,1.24,1.876,1.876,0,0,1-1.328.457,2.563,2.563,0,0,1-1.391-.392" transform="translate(7.451 5.051)" fill="#1b5625"/><path d="M116.326,74.732v2.031a10.241,10.241,0,0,0,.079,1.335h-.826l-.113-.712a1.651,1.651,0,0,1-1.487.841,1.374,1.374,0,0,1-1.079-.462,1.681,1.681,0,0,1-.405-1.133,1.786,1.786,0,0,1,.745-1.544,3.693,3.693,0,0,1,2.184-.54v-.107a1.4,1.4,0,0,0-.278-.916.98.98,0,0,0-.818-.334,2.122,2.122,0,0,0-1.285.417l-.205-.691a2.655,2.655,0,0,1,1.627-.508,1.637,1.637,0,0,1,1.39.6,2.679,2.679,0,0,1,.473,1.722m-.88,1.468v-.919a2.8,2.8,0,0,0-1.591.329,1.015,1.015,0,0,0-.446.875,1.086,1.086,0,0,0,.216.706.8.8,0,0,0,.6.246,1.116,1.116,0,0,0,.873-.385,1.193,1.193,0,0,0,.352-.853" transform="translate(7.848 5.051)" fill="#1b5625"/><path d="M117.093,77.836l.212-.814a2.085,2.085,0,0,0,1.194.416.956.956,0,0,0,.683-.223.761.761,0,0,0,.235-.582.824.824,0,0,0-.2-.578,2.03,2.03,0,0,0-.687-.423,1.686,1.686,0,0,1-1.3-1.563,1.609,1.609,0,0,1,.464-1.185,1.65,1.65,0,0,1,1.227-.474,2.126,2.126,0,0,1,1.208.347l-.23.769a1.723,1.723,0,0,0-1.016-.334.787.787,0,0,0-.566.209.745.745,0,0,0-.206.545.753.753,0,0,0,.172.491,2.2,2.2,0,0,0,.742.433,2.34,2.34,0,0,1,.987.68,1.641,1.641,0,0,1,.294.98,1.67,1.67,0,0,1-.5,1.24,1.88,1.88,0,0,1-1.327.457,2.538,2.538,0,0,1-1.392-.392" transform="translate(8.169 5.051)" fill="#1b5625"/><path d="M124.172,78.272h-.908V73.525H122.6v-.813h.666v-.256a3.163,3.163,0,0,1,.455-1.845,1.5,1.5,0,0,1,1.289-.651,1.658,1.658,0,0,1,.76.167l-.107.818a1.281,1.281,0,0,0-.574-.121c-.617,0-.925.53-.925,1.6v.292h1.164v.813h-1.152Z" transform="translate(8.553 4.88)" fill="#1b5625"/><path d="M130.4,75.416a3.576,3.576,0,0,1-.322,1.56,2.26,2.26,0,0,1-.883,1.033,2.286,2.286,0,0,1-1.242.363,2.144,2.144,0,0,1-1.706-.788,3.6,3.6,0,0,1,.027-4.227,2.238,2.238,0,0,1,1.75-.8,2.112,2.112,0,0,1,1.71.793,3.1,3.1,0,0,1,.666,2.068m-3.9.06a2.622,2.622,0,0,0,.421,1.516,1.238,1.238,0,0,0,1.029.592,1.284,1.284,0,0,0,1.071-.6,2.581,2.581,0,0,0,.429-1.536,2.674,2.674,0,0,0-.395-1.485A1.225,1.225,0,0,0,128,73.348a1.239,1.239,0,0,0-1.1.613,2.731,2.731,0,0,0-.393,1.515m1.826-5.151h.992l-1.214,1.666h-.648Z" transform="translate(8.761 4.906)" fill="#1b5625"/><path d="M131.118,78.1V74.308c0-.721-.005-1.309-.04-1.767h.8l.064,1.105a1.975,1.975,0,0,1,.551-.908,1.177,1.177,0,0,1,.8-.325c.062,0,.151.012.248.02v1.011a1.232,1.232,0,0,0-.314-.034,1.015,1.015,0,0,0-.84.458,2.037,2.037,0,0,0-.358,1.294V78.1Z" transform="translate(9.145 5.051)" fill="#1b5625"/><path d="M134.235,78.1V74.069c0-.623-.02-1.13-.054-1.529h.79l.077.9a1.663,1.663,0,0,1,1.535-1.031,1.276,1.276,0,0,1,.837.293,1.8,1.8,0,0,1,.555.831,1.789,1.789,0,0,1,1.627-1.124,1.386,1.386,0,0,1,1.16.628,3.11,3.11,0,0,1,.455,1.829V78.1h-.892V75a2.54,2.54,0,0,0-.269-1.277.867.867,0,0,0-.776-.443.979.979,0,0,0-.77.395,1.416,1.416,0,0,0-.344,1.011V78.1h-.89V74.809a2.118,2.118,0,0,0-.266-1.115.854.854,0,0,0-.739-.412,1,1,0,0,0-.8.454,1.607,1.607,0,0,0-.348,1.039V78.1Z" transform="translate(9.361 5.051)" fill="#1b5625"/><path d="M146.2,72.531v4.026c0,.629.007,1.139.035,1.535h-.8l-.068-.947a1.743,1.743,0,0,1-1.629,1.073,1.419,1.419,0,0,1-1.223-.628,3.1,3.1,0,0,1-.46-1.841V72.531h.916v3.038c0,1.175.359,1.767,1.076,1.767a1.141,1.141,0,0,0,.878-.421,1.506,1.506,0,0,0,.364-1.016V72.531Z" transform="translate(9.91 5.06)" fill="#1b5625"/><rect width="0.906" height="8.191" transform="translate(157.58 74.961)" fill="#1b5625"/><path d="M152.989,74.732v2.031a9.457,9.457,0,0,0,.082,1.335h-.824l-.115-.712a1.663,1.663,0,0,1-1.493.841,1.393,1.393,0,0,1-1.083-.462,1.692,1.692,0,0,1-.4-1.133,1.772,1.772,0,0,1,.737-1.544,3.7,3.7,0,0,1,2.184-.54v-.107a1.393,1.393,0,0,0-.27-.916.992.992,0,0,0-.818-.334,2.138,2.138,0,0,0-1.29.417l-.2-.691a2.632,2.632,0,0,1,1.628-.508,1.659,1.659,0,0,1,1.4.6,2.739,2.739,0,0,1,.462,1.722M152.1,76.2v-.919a2.782,2.782,0,0,0-1.582.329,1.026,1.026,0,0,0-.449.875,1.007,1.007,0,0,0,.23.706.752.752,0,0,0,.588.246,1.115,1.115,0,0,0,.867-.385,1.193,1.193,0,0,0,.347-.853" transform="translate(10.406 5.051)" fill="#1b5625"/><path d="M153.759,77.836l.211-.814a2.061,2.061,0,0,0,1.192.416.933.933,0,0,0,.674-.223.717.717,0,0,0,.239-.582.816.816,0,0,0-.193-.578,2.041,2.041,0,0,0-.687-.423,1.684,1.684,0,0,1-1.3-1.563,1.608,1.608,0,0,1,1.69-1.659,2.085,2.085,0,0,1,1.206.347l-.217.769a1.77,1.77,0,0,0-1.01-.334.8.8,0,0,0-.577.209.738.738,0,0,0-.215.545.724.724,0,0,0,.183.491,2.094,2.094,0,0,0,.74.433,2.318,2.318,0,0,1,.982.68,1.563,1.563,0,0,1,.291.98,1.641,1.641,0,0,1-.486,1.24,1.892,1.892,0,0,1-1.33.457,2.537,2.537,0,0,1-1.391-.392" transform="translate(10.727 5.051)" fill="#1b5625"/></g></svg>