<svg xmlns="http://www.w3.org/2000/svg" xmlns:xlink="http://www.w3.org/1999/xlink" width="203" height="91.14" viewBox="0 0 203 91.14"><defs><clipPath id="a"><rect width="203" height="91.14" fill="#fff"/></clipPath></defs><g clip-path="url(#a)"><path d="M10.851,44.112a10.147,10.147,0,0,0-7.672,3.381,12.068,12.068,0,0,0,0,16.325A10.144,10.144,0,0,0,10.851,67.2a10.016,10.016,0,0,0,6.194-2.045V67.2H21.7V55.653a11.5,11.5,0,0,0-3.18-8.161,10.17,10.17,0,0,0-7.671-3.381m4.383,16.207a5.793,5.793,0,0,1-4.383,1.928,5.8,5.8,0,0,1-4.387-1.928,6.9,6.9,0,0,1,0-9.331,5.79,5.79,0,0,1,4.387-1.922,5.788,5.788,0,0,1,4.383,1.922,6.916,6.916,0,0,1,0,9.331" transform="translate(0 6.15)" fill="#fff"/><path d="M48.289,44.112a10.179,10.179,0,0,0-7.667,3.382c-.307.324-.591.67-.853,1a12.03,12.03,0,0,0-.851-1,10.391,10.391,0,0,0-15.342,0,11.51,11.51,0,0,0-3.166,8.159V67.2h4.644V55.653a6.575,6.575,0,0,1,1.807-4.666,5.976,5.976,0,0,1,8.779,0,6.579,6.579,0,0,1,1.806,4.666V67.2H42.1V55.653a6.581,6.581,0,0,1,1.808-4.666,5.957,5.957,0,0,1,8.763,0,6.531,6.531,0,0,1,1.819,4.666V67.2h4.645V55.653a11.47,11.47,0,0,0-3.176-8.159,10.151,10.151,0,0,0-7.673-3.382" transform="translate(2.845 6.15)" fill="#fff"/><path d="M66.6,44.717a10,10,0,0,0-6.2,2.043V39.774H55.763V56.258a11.518,11.518,0,0,0,3.173,8.164,10.393,10.393,0,0,0,15.343,0,12.078,12.078,0,0,0,0-16.325A10.171,10.171,0,0,0,66.6,44.717M71,60.924a5.955,5.955,0,0,1-8.774,0,6.906,6.906,0,0,1,0-9.331,5.967,5.967,0,0,1,8.774,0,6.926,6.926,0,0,1,0,9.331" transform="translate(7.775 5.545)" fill="#fff"/><rect width="4.648" height="4.943" transform="translate(86.78 45.318)" fill="#fff"/><rect width="4.648" height="21.435" transform="translate(86.78 51.916)" fill="#fff"/><path d="M92.449,44.112a10.136,10.136,0,0,0-7.668,3.382,12.052,12.052,0,0,0,0,16.322,10.384,10.384,0,0,0,15.338,0,11.351,11.351,0,0,0,2.492-4.047H97.294a4.692,4.692,0,0,1-.458.55,5.955,5.955,0,0,1-8.774,0,6.528,6.528,0,0,1-1.38-2.195h16.38a13.28,13.28,0,0,0,.237-2.471,11.477,11.477,0,0,0-3.181-8.159,10.149,10.149,0,0,0-7.669-3.382m-5.767,9.072a6.465,6.465,0,0,1,1.38-2.2,5.972,5.972,0,0,1,8.774,0,6.4,6.4,0,0,1,1.375,2.2Z" transform="translate(11.377 6.15)" fill="#fff"/><path d="M112.845,44.112a10.136,10.136,0,0,0-7.665,3.382A11.481,11.481,0,0,0,102,55.653V67.2h4.652V55.653a6.565,6.565,0,0,1,1.813-4.666,5.961,5.961,0,0,1,8.767,0,6.605,6.605,0,0,1,1.814,4.666V67.2h4.643V55.653a11.468,11.468,0,0,0-3.173-8.159,10.137,10.137,0,0,0-7.667-3.382" transform="translate(14.221 6.15)" fill="#fff"/><path d="M127.045,39.773H122.4V56.26a11.49,11.49,0,0,0,3.179,8.162,10.141,10.141,0,0,0,7.663,3.384V62.852a5.8,5.8,0,0,1-4.383-1.928,6.565,6.565,0,0,1-1.816-4.664V49.672h6.2V44.717h-6.2Z" transform="translate(17.066 5.545)" fill="#fff"/><path d="M144.13,44.112a10.186,10.186,0,0,0-7.674,3.381,12.078,12.078,0,0,0,0,16.325A10.183,10.183,0,0,0,144.13,67.2a10.034,10.034,0,0,0,6.2-2.045V67.2h4.645V55.653a11.5,11.5,0,0,0-3.177-8.161,10.142,10.142,0,0,0-7.669-3.381m4.379,16.207a5.943,5.943,0,0,1-8.763,0,6.916,6.916,0,0,1,0-9.331,5.955,5.955,0,0,1,8.763,0,6.884,6.884,0,0,1,0,9.331" transform="translate(18.583 6.15)" fill="#fff"/><rect width="4.644" height="28.032" transform="translate(175.113 45.318)" fill="#fff"/><path d="M176.178,44.112V55.653a6.589,6.589,0,0,1-1.825,4.666,5.954,5.954,0,0,1-8.772,0,6.581,6.581,0,0,1-1.811-4.666V44.112h-4.644V55.653a11.5,11.5,0,0,0,3.17,8.163,10.159,10.159,0,0,0,7.677,3.383,10.026,10.026,0,0,0,5.253-1.4,7.212,7.212,0,0,1-.873,1.122,5.791,5.791,0,0,1-4.38,1.927v4.944a10.075,10.075,0,0,0,7.666-3.386,11.421,11.421,0,0,0,3.176-8.154V44.112Z" transform="translate(22.186 6.15)" fill="#fff"/><path d="M80.143,39.261s31.411,4.034,61.044-22.483c0,0-18.749,42.372-61.044,22.483" transform="translate(11.174 2.339)" fill="#fff"/><path d="M100.381,23.27a19.259,19.259,0,0,1-4.748,3.869c-8.412,5.274-18.144,5.991-27.759,4.342,22.6,5.106,52.46,3.185,79.682-26.324,0,0-18.275,13.3-47.176,18.112" transform="translate(9.463 0.719)" fill="#fff"/><path d="M37.435,16.261a126.962,126.962,0,0,0,68.777,7.729c3.885-4.308,7.525-12.251-.595-23.989,0,0,5.559,23.4-22.2,24.714,0,0-19.974,4.137-57.361-15.895,0,0,23.469,19.226,47.653,23.382A105.228,105.228,0,0,1,37.435,16.261" transform="translate(3.632 0)" fill="#fff"/><path d="M36.042,14.271A105.228,105.228,0,0,0,72.313,30.212c9.614,1.65,19.347.932,27.759-4.342A19.2,19.2,0,0,0,104.819,22a126.937,126.937,0,0,1-68.777-7.726" transform="translate(5.025 1.989)" fill="#fff"/><rect width="0.962" height="8.255" transform="translate(24.388 80.311)" fill="#fff"/><path d="M23.644,78.471V74.177c0-.663-.016-1.2-.042-1.628h.857l.081,1a1.936,1.936,0,0,1,.706-.822,1.752,1.752,0,0,1,1.006-.312,1.62,1.62,0,0,1,1.317.656,3.069,3.069,0,0,1,.524,1.924v3.479h-.966V75.124a2.372,2.372,0,0,0-.3-1.3,1.025,1.025,0,0,0-.9-.473,1.213,1.213,0,0,0-.926.464,1.646,1.646,0,0,0-.391,1.118v3.542Z" transform="translate(3.291 10.096)" fill="#fff"/><path d="M29.15,71.6l.95-.328v1.431h1.335v.866H30.1V76.66a1.912,1.912,0,0,0,.163.9.614.614,0,0,0,.546.264,1.805,1.805,0,0,0,.548-.072l.047.861a2.269,2.269,0,0,1-.873.152c-.921,0-1.381-.676-1.381-2.034V73.573h-.79v-.866h.79Z" transform="translate(3.954 9.937)" fill="#fff"/><path d="M36.2,75.742h-3.65a2.15,2.15,0,0,0,.5,1.472,1.648,1.648,0,0,0,1.255.515,3.358,3.358,0,0,0,1.471-.314l.163.8a3.717,3.717,0,0,1-1.752.39,2.307,2.307,0,0,1-1.873-.827,3.217,3.217,0,0,1-.7-2.182,3.71,3.71,0,0,1,.668-2.264,2.125,2.125,0,0,1,1.8-.924,1.808,1.808,0,0,1,1.6.823,3.454,3.454,0,0,1,.557,2,3.132,3.132,0,0,1-.033.514m-3.635-.822h2.73a2.051,2.051,0,0,0-.338-1.24A1.1,1.1,0,0,0,34,73.215a1.222,1.222,0,0,0-.972.466,2.275,2.275,0,0,0-.468,1.24" transform="translate(4.407 10.095)" fill="#fff"/><rect width="0.965" height="8.725" transform="translate(41.8 79.842)" fill="#fff"/><path d="M40.022,71.042a.8.8,0,0,1-.174.514.589.589,0,0,1-.458.2.562.562,0,0,1-.435-.2.763.763,0,0,1-.178-.514.717.717,0,0,1,.178-.508.574.574,0,0,1,.446-.21.566.566,0,0,1,.446.21.8.8,0,0,1,.177.508m-.136,7.72h-.971V72.839h.971Z" transform="translate(5.406 9.804)" fill="#fff"/><path d="M45.628,74.164v3.43a3.912,3.912,0,0,1-.718,2.7,2.539,2.539,0,0,1-1.942.754,2.732,2.732,0,0,1-1.75-.521l.237-.865a2.532,2.532,0,0,0,1.546.49,1.514,1.514,0,0,0,1.239-.526,2.41,2.41,0,0,0,.435-1.54l-.031-.648a1.763,1.763,0,0,1-1.652,1.023,1.947,1.947,0,0,1-1.594-.839,3.349,3.349,0,0,1-.632-2.061,3.565,3.565,0,0,1,.7-2.288,2.051,2.051,0,0,1,1.652-.859,1.739,1.739,0,0,1,1.657,1.025l.035-.886h.866c-.036.348-.052.882-.052,1.615m-.967,1.722V74.92a1.821,1.821,0,0,0-.382-1.146,1.191,1.191,0,0,0-.991-.476,1.307,1.307,0,0,0-1.111.61,2.6,2.6,0,0,0-.435,1.593,2.486,2.486,0,0,0,.42,1.492,1.307,1.307,0,0,0,1.114.587,1.276,1.276,0,0,0,.979-.469,1.82,1.82,0,0,0,.406-1.224" transform="translate(5.684 10.095)" fill="#fff"/><path d="M50.648,76.031H46.994a2.219,2.219,0,0,0,.5,1.473,1.666,1.666,0,0,0,1.26.514,3.374,3.374,0,0,0,1.47-.312l.162.8a3.708,3.708,0,0,1-1.751.39,2.33,2.33,0,0,1-1.879-.826,3.23,3.23,0,0,1-.693-2.183,3.724,3.724,0,0,1,.668-2.262,2.1,2.1,0,0,1,1.79-.924,1.8,1.8,0,0,1,1.6.823,3.463,3.463,0,0,1,.556,1.994,2.824,2.824,0,0,1-.035.514m-3.639-.822h2.744a2.079,2.079,0,0,0-.341-1.239,1.128,1.128,0,0,0-.962-.465,1.236,1.236,0,0,0-.969.465,2.349,2.349,0,0,0-.473,1.239m1.167-4.885h.652L49.842,72.1h-.728l-.632-1.16-.61,1.16h-.706Z" transform="translate(6.423 9.805)" fill="#fff"/><path d="M51.139,78.471V74.177c0-.663-.006-1.2-.032-1.628h.853l.087,1a2,2,0,0,1,.694-.822,1.8,1.8,0,0,1,1.024-.312,1.631,1.631,0,0,1,1.309.656,3.068,3.068,0,0,1,.532,1.924v3.479h-.975V75.124a2.245,2.245,0,0,0-.311-1.3,1,1,0,0,0-.886-.473,1.2,1.2,0,0,0-.922.464,1.663,1.663,0,0,0-.4,1.118v3.542Z" transform="translate(7.126 10.096)" fill="#fff"/><path d="M60,77.4l.148.857a3.117,3.117,0,0,1-1.51.35,2.321,2.321,0,0,1-1.87-.843,3.2,3.2,0,0,1-.728-2.18,3.32,3.32,0,0,1,.783-2.288,2.528,2.528,0,0,1,2.017-.886,2.722,2.722,0,0,1,1.338.33l-.21.869a2.1,2.1,0,0,0-1.113-.287,1.633,1.633,0,0,0-1.332.606,2.452,2.452,0,0,0-.49,1.576,2.319,2.319,0,0,0,.513,1.6,1.6,1.6,0,0,0,1.278.588A2.624,2.624,0,0,0,60,77.4" transform="translate(7.814 10.095)" fill="#fff"/><path d="M61.753,71.042a.769.769,0,0,1-.178.514.572.572,0,0,1-.449.2.562.562,0,0,1-.441-.2.772.772,0,0,1-.174-.514.725.725,0,0,1,.174-.508.58.58,0,0,1,.456-.21.564.564,0,0,1,.434.21.722.722,0,0,1,.178.508m-.142,7.72h-.973V72.839h.973Z" transform="translate(8.437 9.804)" fill="#fff"/><path d="M66.57,74.884v2.164a10.1,10.1,0,0,0,.087,1.422h-.885l-.119-.759a1.774,1.774,0,0,1-1.591.9,1.5,1.5,0,0,1-1.155-.492,1.84,1.84,0,0,1-.42-1.207,1.87,1.87,0,0,1,.794-1.644,3.9,3.9,0,0,1,2.324-.575v-.114a1.473,1.473,0,0,0-.3-.975,1.055,1.055,0,0,0-.869-.356,2.22,2.22,0,0,0-1.374.444l-.216-.736a2.813,2.813,0,0,1,1.739-.541,1.75,1.75,0,0,1,1.481.639,2.868,2.868,0,0,1,.5,1.834m-.941,1.563v-.979a2.928,2.928,0,0,0-1.69.351A1.2,1.2,0,0,0,63.7,77.5a.809.809,0,0,0,.627.262,1.16,1.16,0,0,0,.92-.41,1.262,1.262,0,0,0,.384-.908" transform="translate(8.712 10.095)" fill="#fff"/><path d="M69.388,80.9V74.488c0-.8-.014-1.439-.035-1.939h.859l.049,1.021h.026a2.009,2.009,0,0,1,1.866-1.16,1.905,1.905,0,0,1,1.579.839,3.527,3.527,0,0,1,.631,2.163,3.681,3.681,0,0,1-.676,2.329,2.092,2.092,0,0,1-1.7.866,1.879,1.879,0,0,1-.941-.24,1.657,1.657,0,0,1-.665-.7h-.026V80.9Zm.965-5.816v.943a1.768,1.768,0,0,0,.427,1.208,1.321,1.321,0,0,0,1.016.48,1.344,1.344,0,0,0,1.163-.6,2.829,2.829,0,0,0,.417-1.641,2.574,2.574,0,0,0-.417-1.539,1.311,1.311,0,0,0-1.939-.309,1.665,1.665,0,0,0-.52.742,2.314,2.314,0,0,0-.148.719" transform="translate(9.67 10.095)" fill="#fff"/><path d="M78.508,74.884v2.164a8.8,8.8,0,0,0,.091,1.422h-.886l-.117-.759a1.765,1.765,0,0,1-1.585.9,1.48,1.48,0,0,1-1.158-.492,1.774,1.774,0,0,1-.426-1.207,1.877,1.877,0,0,1,.8-1.644,3.9,3.9,0,0,1,2.327-.575v-.114a1.487,1.487,0,0,0-.3-.975,1.041,1.041,0,0,0-.873-.356,2.283,2.283,0,0,0-1.37.444l-.22-.736a2.844,2.844,0,0,1,1.738-.541,1.749,1.749,0,0,1,1.485.639,2.9,2.9,0,0,1,.5,1.834m-.937,1.563v-.979a2.969,2.969,0,0,0-1.692.351,1.076,1.076,0,0,0-.479.932,1.115,1.115,0,0,0,.234.752.84.84,0,0,0,.631.262,1.19,1.19,0,0,0,.924-.41,1.255,1.255,0,0,0,.382-.908" transform="translate(10.377 10.095)" fill="#fff"/><path d="M79.34,78.471v-4.04c0-.768-.015-1.395-.039-1.882h.842l.069,1.177a2.192,2.192,0,0,1,.594-.967,1.288,1.288,0,0,1,.86-.346c.066,0,.145.013.26.022V73.51a1.379,1.379,0,0,0-.336-.036,1.114,1.114,0,0,0-.9.488,2.2,2.2,0,0,0-.376,1.379v3.131Z" transform="translate(11.057 10.096)" fill="#fff"/><path d="M86.117,74.884v2.164a10.249,10.249,0,0,0,.088,1.422h-.883l-.118-.759a1.766,1.766,0,0,1-1.585.9,1.456,1.456,0,0,1-1.153-.492,1.808,1.808,0,0,1-.433-1.207,1.883,1.883,0,0,1,.8-1.644,3.922,3.922,0,0,1,2.327-.575v-.114a1.449,1.449,0,0,0-.3-.975,1.04,1.04,0,0,0-.873-.356,2.216,2.216,0,0,0-1.364.444l-.227-.736a2.848,2.848,0,0,1,1.744-.541,1.766,1.766,0,0,1,1.482.639,2.9,2.9,0,0,1,.5,1.834m-.946,1.563v-.979a2.983,2.983,0,0,0-1.686.351,1.21,1.21,0,0,0-.242,1.684.826.826,0,0,0,.626.262,1.19,1.19,0,0,0,.93-.41,1.264,1.264,0,0,0,.373-.908" transform="translate(11.437 10.095)" fill="#fff"/><path d="M89.2,71.6l.95-.328v1.431h1.339v.866H90.153V76.66a1.7,1.7,0,0,0,.171.9.587.587,0,0,0,.536.264,1.886,1.886,0,0,0,.555-.072l.034.861a2.159,2.159,0,0,1-.859.152c-.926,0-1.387-.676-1.387-2.034V73.573h-.791v-.866H89.2Z" transform="translate(12.327 9.937)" fill="#fff"/><path d="M96.8,75.456a3.719,3.719,0,0,1-.35,1.662,2.378,2.378,0,0,1-.937,1.1,2.408,2.408,0,0,1-1.313.386,2.3,2.3,0,0,1-1.821-.841,3.305,3.305,0,0,1-.719-2.208,3.387,3.387,0,0,1,.737-2.294,2.394,2.394,0,0,1,1.875-.852,2.284,2.284,0,0,1,1.824.843,3.314,3.314,0,0,1,.7,2.2m-4.152.066a2.784,2.784,0,0,0,.441,1.615,1.34,1.34,0,0,0,1.112.629,1.359,1.359,0,0,0,1.134-.642,2.68,2.68,0,0,0,.455-1.633,2.911,2.911,0,0,0-.41-1.584,1.32,1.32,0,0,0-1.15-.653,1.3,1.3,0,0,0-1.152.653,2.853,2.853,0,0,0-.43,1.615" transform="translate(12.78 10.095)" fill="#fff"/><path d="M100.812,70.072h.968v7.174q0,.986.041,1.551h-.868l-.071-1.055a1.9,1.9,0,0,1-1.773,1.192A1.97,1.97,0,0,1,97.5,78.09a3.571,3.571,0,0,1-.638-2.167,3.668,3.668,0,0,1,.678-2.295,2.011,2.011,0,0,1,1.672-.891,1.922,1.922,0,0,1,.953.243,1.718,1.718,0,0,1,.646.668Zm0,6.181V75.31a1.773,1.773,0,0,0-.411-1.216,1.256,1.256,0,0,0-.989-.45,1.3,1.3,0,0,0-1.138.61,2.821,2.821,0,0,0-.428,1.6,2.739,2.739,0,0,0,.409,1.546,1.277,1.277,0,0,0,1.136.613,1.309,1.309,0,0,0,.987-.485,1.817,1.817,0,0,0,.435-1.277" transform="translate(13.505 9.769)" fill="#fff"/><path d="M106.28,74.884v2.164a9.2,9.2,0,0,0,.084,1.422h-.883l-.113-.759a1.781,1.781,0,0,1-1.6.9,1.483,1.483,0,0,1-1.154-.492,1.812,1.812,0,0,1-.423-1.207,1.89,1.89,0,0,1,.792-1.644,3.919,3.919,0,0,1,2.321-.575v-.114a1.491,1.491,0,0,0-.292-.975,1.043,1.043,0,0,0-.866-.356,2.247,2.247,0,0,0-1.373.444l-.224-.736a2.828,2.828,0,0,1,1.735-.541,1.756,1.756,0,0,1,1.488.639,2.9,2.9,0,0,1,.5,1.834m-.949,1.563v-.979a2.936,2.936,0,0,0-1.681.351,1.081,1.081,0,0,0-.481.932,1.1,1.1,0,0,0,.237.752.819.819,0,0,0,.628.262,1.164,1.164,0,0,0,.921-.41,1.24,1.24,0,0,0,.376-.908" transform="translate(14.249 10.095)" fill="#fff"/><path d="M106.8,78.189l.228-.867a2.186,2.186,0,0,0,1.267.443,1.015,1.015,0,0,0,.725-.237.775.775,0,0,0,.255-.62.9.9,0,0,0-.21-.615,2.188,2.188,0,0,0-.743-.45,1.792,1.792,0,0,1-1.374-1.665,1.706,1.706,0,0,1,1.795-1.767,2.257,2.257,0,0,1,1.29.369l-.243.819a1.853,1.853,0,0,0-1.079-.355.849.849,0,0,0-.61.222.842.842,0,0,0-.032,1.1,2.331,2.331,0,0,0,.779.461,2.439,2.439,0,0,1,1.053.725,1.7,1.7,0,0,1,.324,1.044,1.778,1.778,0,0,1-.53,1.321,2,2,0,0,1-1.414.487,2.73,2.73,0,0,1-1.481-.417" transform="translate(14.89 10.095)" fill="#fff"/><path d="M116.575,74.884v2.164a10.91,10.91,0,0,0,.084,1.422h-.88l-.121-.759a1.758,1.758,0,0,1-1.584.9,1.464,1.464,0,0,1-1.15-.492,1.79,1.79,0,0,1-.432-1.207,1.9,1.9,0,0,1,.793-1.644,3.934,3.934,0,0,1,2.327-.575v-.114a1.492,1.492,0,0,0-.3-.975,1.044,1.044,0,0,0-.872-.356,2.261,2.261,0,0,0-1.368.444l-.219-.736a2.828,2.828,0,0,1,1.733-.541,1.743,1.743,0,0,1,1.48.639,2.854,2.854,0,0,1,.5,1.834m-.938,1.563v-.979a2.983,2.983,0,0,0-1.694.351,1.081,1.081,0,0,0-.475.932,1.157,1.157,0,0,0,.23.752.848.848,0,0,0,.635.262,1.188,1.188,0,0,0,.93-.41,1.271,1.271,0,0,0,.375-.908" transform="translate(15.685 10.095)" fill="#fff"/><path d="M117.093,78.189l.226-.867a2.221,2.221,0,0,0,1.272.443,1.019,1.019,0,0,0,.727-.237.81.81,0,0,0,.251-.62.877.877,0,0,0-.21-.615,2.163,2.163,0,0,0-.732-.45,1.8,1.8,0,0,1-1.386-1.665,1.714,1.714,0,0,1,.495-1.262,1.758,1.758,0,0,1,1.307-.5,2.264,2.264,0,0,1,1.286.369l-.245.819A1.835,1.835,0,0,0,119,73.244a.838.838,0,0,0-.6.222.793.793,0,0,0-.22.58.8.8,0,0,0,.183.523,2.339,2.339,0,0,0,.791.461,2.492,2.492,0,0,1,1.052.725,1.748,1.748,0,0,1,.313,1.044,1.778,1.778,0,0,1-.53,1.321,2,2,0,0,1-1.413.487,2.7,2.7,0,0,1-1.482-.417" transform="translate(16.326 10.095)" fill="#fff"/><path d="M124.274,78.813h-.967V73.757h-.71v-.866h.71v-.272a3.369,3.369,0,0,1,.484-1.965,1.6,1.6,0,0,1,1.373-.694,1.766,1.766,0,0,1,.809.178l-.114.872a1.365,1.365,0,0,0-.612-.129c-.657,0-.986.564-.986,1.7v.311h1.24v.866h-1.227Z" transform="translate(17.093 9.754)" fill="#fff"/><path d="M130.716,75.748a3.809,3.809,0,0,1-.343,1.661,2.407,2.407,0,0,1-.94,1.1,2.435,2.435,0,0,1-1.323.386,2.283,2.283,0,0,1-1.817-.84,3.836,3.836,0,0,1,.028-4.5,2.384,2.384,0,0,1,1.864-.853,2.25,2.25,0,0,1,1.821.844,3.3,3.3,0,0,1,.71,2.2m-4.151.064a2.793,2.793,0,0,0,.449,1.615,1.318,1.318,0,0,0,1.1.63,1.367,1.367,0,0,0,1.141-.64,2.749,2.749,0,0,0,.457-1.636,2.848,2.848,0,0,0-.42-1.582,1.3,1.3,0,0,0-1.134-.653,1.32,1.32,0,0,0-1.17.653,2.909,2.909,0,0,0-.418,1.613m1.945-5.486h1.056L128.273,72.1h-.69Z" transform="translate(17.509 9.805)" fill="#fff"/><path d="M131.12,78.471v-4.04c0-.768-.006-1.395-.042-1.882h.857L132,73.726a2.1,2.1,0,0,1,.587-.967,1.254,1.254,0,0,1,.848-.346c.066,0,.161.013.264.022V73.51a1.312,1.312,0,0,0-.335-.036,1.081,1.081,0,0,0-.894.488,2.17,2.17,0,0,0-.382,1.379v3.131Z" transform="translate(18.276 10.096)" fill="#fff"/><path d="M134.238,78.471V74.177c0-.663-.022-1.2-.057-1.628h.841l.082.962a1.771,1.771,0,0,1,1.635-1.1,1.359,1.359,0,0,1,.891.312,1.919,1.919,0,0,1,.591.885,1.905,1.905,0,0,1,1.733-1.2,1.476,1.476,0,0,1,1.235.669,3.313,3.313,0,0,1,.484,1.948v3.442h-.95v-3.3a2.705,2.705,0,0,0-.286-1.36.923.923,0,0,0-.826-.472,1.042,1.042,0,0,0-.82.42,1.509,1.509,0,0,0-.367,1.077v3.635h-.948V74.965a2.256,2.256,0,0,0-.284-1.187.909.909,0,0,0-.787-.439,1.061,1.061,0,0,0-.857.483,1.712,1.712,0,0,0-.37,1.106v3.542Z" transform="translate(18.708 10.096)" fill="#fff"/><path d="M146.473,72.531v4.288c0,.67.008,1.213.038,1.635h-.855l-.073-1.008a1.857,1.857,0,0,1-1.735,1.143,1.511,1.511,0,0,1-1.3-.669,3.3,3.3,0,0,1-.49-1.961V72.531h.975v3.236c0,1.251.383,1.882,1.146,1.882a1.215,1.215,0,0,0,.935-.449,1.6,1.6,0,0,0,.387-1.082V72.531Z" transform="translate(19.806 10.112)" fill="#fff"/><rect width="0.965" height="8.725" transform="translate(167.841 79.842)" fill="#fff"/><path d="M153.238,74.884v2.164a10.072,10.072,0,0,0,.088,1.422h-.877l-.122-.759a1.771,1.771,0,0,1-1.591.9,1.484,1.484,0,0,1-1.153-.492,1.8,1.8,0,0,1-.425-1.207,1.888,1.888,0,0,1,.785-1.644,3.946,3.946,0,0,1,2.327-.575v-.114a1.484,1.484,0,0,0-.287-.975,1.057,1.057,0,0,0-.872-.356,2.277,2.277,0,0,0-1.374.444l-.214-.736a2.8,2.8,0,0,1,1.734-.541,1.767,1.767,0,0,1,1.489.639,2.918,2.918,0,0,1,.492,1.834m-.947,1.563v-.979a2.963,2.963,0,0,0-1.685.351,1.092,1.092,0,0,0-.479.932,1.073,1.073,0,0,0,.245.752.8.8,0,0,0,.627.262,1.187,1.187,0,0,0,.923-.41,1.27,1.27,0,0,0,.369-.908" transform="translate(20.796 10.095)" fill="#fff"/><path d="M153.759,78.189l.224-.867a2.2,2.2,0,0,0,1.269.443.993.993,0,0,0,.718-.237.764.764,0,0,0,.254-.62.869.869,0,0,0-.205-.615,2.175,2.175,0,0,0-.731-.45,1.793,1.793,0,0,1-1.388-1.665,1.713,1.713,0,0,1,1.8-1.767,2.221,2.221,0,0,1,1.284.369l-.231.819a1.885,1.885,0,0,0-1.076-.355.853.853,0,0,0-.614.222.786.786,0,0,0-.229.58.771.771,0,0,0,.195.523,2.231,2.231,0,0,0,.788.461,2.469,2.469,0,0,1,1.046.725,1.665,1.665,0,0,1,.31,1.044,1.748,1.748,0,0,1-.517,1.321,2.015,2.015,0,0,1-1.416.487,2.7,2.7,0,0,1-1.481-.417" transform="translate(21.438 10.095)" fill="#fff"/></g></svg>