<svg xmlns="http://www.w3.org/2000/svg" xmlns:xlink="http://www.w3.org/1999/xlink" width="383.625" height="358.137" viewBox="0 0 383.625 358.137"><defs><clipPath id="a"><rect width="383.625" height="358.137" fill="none"/></clipPath></defs><g clip-path="url(#a)"><path d="M202.229,275.916A102.563,102.563,0,1,1,304.792,378.479,102.563,102.563,0,0,1,202.229,275.916" transform="translate(-23.73 -20.342)" fill="#8eb314"/><path d="M0,275.916A102.563,102.563,0,1,1,102.563,378.479,102.563,102.563,0,0,1,0,275.916" transform="translate(0 -20.342)" fill="#469826"/><path d="M255.954,261.077h-3.906v14.031a.483.483,0,0,1-.482.482h-3.158a.483.483,0,0,1-.482-.482V261.077H244a.464.464,0,0,1-.483-.459v-2.482a.464.464,0,0,1,.483-.459h11.957a.485.485,0,0,1,.507.459v2.482a.485.485,0,0,1-.507.459" transform="translate(-28.575 -30.236)" fill="#fff"/><path d="M270.626,275.465a28.373,28.373,0,0,1-4.676.313c-3.11,0-5.859-.8-5.859-5.184v-8c0-4.388,2.773-5.16,5.883-5.16a27.949,27.949,0,0,1,4.652.314c.338.049.483.169.483.482v2.243a.484.484,0,0,1-.483.482h-4.893c-1.133,0-1.543.385-1.543,1.639v2.193h6.244a.484.484,0,0,1,.482.482v2.29a.484.484,0,0,1-.482.483H264.19v2.554c0,1.254.41,1.64,1.543,1.64h4.893a.484.484,0,0,1,.483.483v2.242c0,.312-.145.457-.483.506" transform="translate(-30.52 -30.208)" fill="#fff"/><path d="M286.277,275.368a13.687,13.687,0,0,1-3.592.41c-3.665,0-7.135-1.93-7.135-7.667v-3.037c0-5.738,3.471-7.643,7.135-7.643a13.646,13.646,0,0,1,3.592.41c.337.1.53.192.53.53v2.339a.425.425,0,0,1-.458.482h-.072c-.916-.072-2.242-.192-3.569-.192-1.664,0-2.99.868-2.99,4.074v3.037c0,3.206,1.326,4.074,2.99,4.074,1.327,0,2.652-.12,3.569-.192h.072a.425.425,0,0,1,.458.482v2.338c0,.338-.193.458-.53.554" transform="translate(-32.334 -30.208)" fill="#fff"/><path d="M304.591,275.591h-2.363a1.247,1.247,0,0,1-1.253-.748l-5.5-9.5c-.1-.145-.145-.192-.217-.192s-.12.048-.12.192v9.764a.484.484,0,0,1-.483.482h-2.845a.483.483,0,0,1-.481-.482V258.594a.915.915,0,0,1,.915-.916h2.434c.483,0,.724.242,1.013.748l5.713,9.933c.1.145.12.192.192.192.049,0,.121-.048.121-.217v-10.2a.464.464,0,0,1,.482-.459h2.846a.464.464,0,0,1,.481.459v16.537a.936.936,0,0,1-.94.916" transform="translate(-34.186 -30.237)" fill="#fff"/><path d="M317.911,275.779c-3.978,0-7.135-2.146-7.135-7.739v-2.87c0-5.593,3.157-7.739,7.135-7.739s7.136,2.147,7.136,7.739v2.87c0,5.593-3.158,7.739-7.136,7.739m2.99-10.609c0-2.892-.964-4.122-2.99-4.122s-2.965,1.23-2.965,4.122v2.87c0,2.892.94,4.122,2.965,4.122s2.99-1.23,2.99-4.122Z" transform="translate(-36.467 -30.208)" fill="#fff"/><path d="M340.113,275.493a24.942,24.942,0,0,1-3.93.313c-3.11,0-5.882-.8-5.882-5.184V258.16a.485.485,0,0,1,.483-.483h3.158a.485.485,0,0,1,.483.483v12.463c0,1.254.409,1.64,1.542,1.64h4.147a.484.484,0,0,1,.483.483v2.242c0,.313-.145.433-.483.506" transform="translate(-38.758 -30.236)" fill="#fff"/><path d="M350.354,275.779c-3.978,0-7.136-2.146-7.136-7.739v-2.87c0-5.593,3.158-7.739,7.136-7.739s7.136,2.147,7.136,7.739v2.87c0,5.593-3.158,7.739-7.136,7.739m2.99-10.609c0-2.892-.965-4.122-2.99-4.122s-2.965,1.23-2.965,4.122v2.87c0,2.892.939,4.122,2.965,4.122s2.99-1.23,2.99-4.122Z" transform="translate(-40.274 -30.208)" fill="#fff"/><path d="M374.613,261.218h-.072c-1.157-.049-2.965-.193-5.014-.193-1.953,0-3.158.941-3.158,4.1v3.013c0,3.326,1.519,4.1,2.7,4.1.674,0,1.278-.024,1.856-.072v-5.544a.464.464,0,0,1,.458-.483h3.086a.484.484,0,0,1,.483.483v8.1c0,.338-.121.482-.483.554a26.122,26.122,0,0,1-5.4.507c-2.749,0-6.871-1.567-6.871-7.666v-2.99c0-6.149,3.832-7.691,7.329-7.691a22.793,22.793,0,0,1,5.038.555c.242.048.41.145.41.361V260.9c0,.265-.145.313-.362.313" transform="translate(-42.501 -30.208)" fill="#fff"/><path d="M384.022,275.591h-3.231a.444.444,0,0,1-.433-.482V258.137a.425.425,0,0,1,.433-.459h3.231a.444.444,0,0,1,.459.459v16.972a.464.464,0,0,1-.459.482" transform="translate(-44.632 -30.237)" fill="#fff"/><path d="M402.26,275.562h-3.375a.514.514,0,0,1-.482-.433l-.868-3.954h-4.943l-.867,3.954a.514.514,0,0,1-.483.433h-3.374a.374.374,0,0,1-.41-.386,1.053,1.053,0,0,0,.024-.12l3.592-14.948c.555-2.314,2.339-2.676,4-2.676s3.423.362,3.977,2.676l3.592,14.948a1.053,1.053,0,0,0,.024.12.373.373,0,0,1-.41.386m-6.871-14.344c-.049-.241-.1-.362-.313-.362s-.289.121-.337.362l-1.471,6.653h3.592Z" transform="translate(-45.465 -30.208)" fill="#fff"/><path d="M275.192,299.89h-2.871v10.317a.356.356,0,0,1-.354.354h-2.322a.356.356,0,0,1-.355-.354V299.89H266.4a.34.34,0,0,1-.354-.336v-1.825a.341.341,0,0,1,.354-.337h8.791a.357.357,0,0,1,.372.337v1.825a.356.356,0,0,1-.372.336" transform="translate(-31.219 -34.897)" fill="#17100d"/><path d="M283.174,303.019h-.143a4.77,4.77,0,0,0-2.285.62v6.931a.372.372,0,0,1-.356.372h-2.144a.387.387,0,0,1-.372-.372V301.14a.355.355,0,0,1,.354-.354h2.11a.354.354,0,0,1,.354.354v.354a3.8,3.8,0,0,1,2.393-.85.355.355,0,0,1,.356.354v1.684c0,.16-.106.337-.266.337" transform="translate(-32.606 -35.278)" fill="#17100d"/><path d="M292.817,310.942h-1.985a.355.355,0,0,1-.354-.354V310.3a3.909,3.909,0,0,1-2.464.8,2.764,2.764,0,0,1-3.031-3.05v-.159c0-2.074,1.329-3,4.359-3h.958v-.637c0-1.011-.5-1.223-1.329-1.223-1.135,0-2.393.071-2.942.124h-.089a.289.289,0,0,1-.319-.319v-1.436a.4.4,0,0,1,.337-.389,14.247,14.247,0,0,1,3.065-.372c2.553,0,4.148,1.028,4.148,3.616v6.328a.355.355,0,0,1-.355.354m-2.464-4.343h-1.011c-1.24,0-1.559.425-1.559,1.294v.159c0,.745.372.886,1.117.886a3.277,3.277,0,0,0,1.453-.389Z" transform="translate(-33.441 -35.278)" fill="#17100d"/><path d="M305.018,310.941h-2.146a.371.371,0,0,1-.354-.372v-5.9c0-1.242-.23-1.649-1.311-1.649a3.8,3.8,0,0,0-1.666.568v6.983a.372.372,0,0,1-.355.372h-2.145a.385.385,0,0,1-.371-.372V301.14a.356.356,0,0,1,.354-.355h1.984a.356.356,0,0,1,.355.355v.425a4.468,4.468,0,0,1,2.889-.922c2.569,0,3.137,1.79,3.137,4.024v5.9a.386.386,0,0,1-.372.372" transform="translate(-34.812 -35.278)" fill="#17100d"/><path d="M312.231,311.1a13.858,13.858,0,0,1-3.225-.389.4.4,0,0,1-.337-.408v-1.436a.326.326,0,0,1,.337-.337h.071c.957.124,2.446.248,3.013.248.851,0,1.045-.23,1.045-.691,0-.266-.159-.461-.656-.744l-2.3-1.329a2.926,2.926,0,0,1-1.577-2.623c0-1.79,1.187-2.748,3.633-2.748a11.489,11.489,0,0,1,3.155.408.4.4,0,0,1,.337.408v1.436a.3.3,0,0,1-.3.336h-.052a28.565,28.565,0,0,0-2.943-.23c-.691,0-.939.106-.939.514,0,.267.2.408.549.62l2.2,1.259a2.937,2.937,0,0,1,1.79,2.73c0,1.666-1.206,2.977-3.794,2.977" transform="translate(-36.212 -35.278)" fill="#17100d"/><path d="M324.53,298.908h-.868c-.532,0-.585.124-.585.832v.585h1.453a.355.355,0,0,1,.354.355v1.436a.355.355,0,0,1-.354.354h-1.453v7.657a.355.355,0,0,1-.355.354h-2.18a.355.355,0,0,1-.355-.354V302.47l-1.418-.231a.414.414,0,0,1-.372-.371V300.7a.387.387,0,0,1,.372-.372h1.418v-.567c0-2.517,1.028-3.032,2.978-3.032a7.684,7.684,0,0,1,1.4.142.364.364,0,0,1,.337.355v1.382c0,.2-.142.3-.372.3" transform="translate(-37.361 -34.819)" fill="#17100d"/><path d="M331.241,311.1c-2.871,0-4.449-1.79-4.449-4.608v-1.241c0-2.817,1.577-4.608,4.449-4.608s4.43,1.791,4.43,4.608v1.241c0,2.818-1.559,4.608-4.43,4.608m1.577-5.849c0-1.435-.55-2.162-1.577-2.162s-1.6.726-1.6,2.162v1.241c0,1.435.568,2.18,1.6,2.18s1.577-.745,1.577-2.18Z" transform="translate(-38.347 -35.278)" fill="#17100d"/><path d="M344.239,303.019H344.1a4.777,4.777,0,0,0-2.287.62v6.931a.372.372,0,0,1-.354.372h-2.145a.388.388,0,0,1-.372-.372V301.14a.355.355,0,0,1,.354-.354h2.11a.354.354,0,0,1,.354.354v.354a3.8,3.8,0,0,1,2.393-.85.355.355,0,0,1,.356.354v1.684c0,.16-.107.337-.267.337" transform="translate(-39.772 -35.278)" fill="#17100d"/><path d="M359.9,310.941h-2.145a.371.371,0,0,1-.354-.372v-6.044c0-1.134-.267-1.471-1.082-1.471a3.429,3.429,0,0,0-1.365.32c.036.354.054.762.054,1.151v6.044a.372.372,0,0,1-.355.372H352.51a.386.386,0,0,1-.372-.372v-6.044c0-1.134-.213-1.471-1.028-1.471a3.363,3.363,0,0,0-1.347.461v7.054a.372.372,0,0,1-.355.372h-2.144a.387.387,0,0,1-.372-.372V301.14a.355.355,0,0,1,.354-.355h2.02a.356.356,0,0,1,.356.355v.389a4.652,4.652,0,0,1,2.622-.886,2.481,2.481,0,0,1,2.091.869,5.208,5.208,0,0,1,2.89-.869c2.339,0,3.049,1.561,3.049,3.881v6.044a.387.387,0,0,1-.372.372" transform="translate(-40.705 -35.278)" fill="#17100d"/><path d="M371.9,310.942H369.91a.355.355,0,0,1-.354-.354V310.3a3.909,3.909,0,0,1-2.464.8,2.764,2.764,0,0,1-3.031-3.05v-.159c0-2.074,1.329-3,4.359-3h.958v-.637c0-1.011-.5-1.223-1.329-1.223-1.135,0-2.393.071-2.942.124h-.089a.289.289,0,0,1-.319-.319v-1.436a.4.4,0,0,1,.337-.389,14.248,14.248,0,0,1,3.065-.372c2.553,0,4.148,1.028,4.148,3.616v6.328a.355.355,0,0,1-.355.354m-2.464-4.343h-1.011c-1.24,0-1.559.425-1.559,1.294v.159c0,.745.372.886,1.117.886a3.277,3.277,0,0,0,1.453-.389Z" transform="translate(-42.72 -35.278)" fill="#17100d"/><path d="M381.049,303.019h-.143a4.77,4.77,0,0,0-2.285.62v6.931a.372.372,0,0,1-.356.372h-2.144a.387.387,0,0,1-.372-.372V301.14a.355.355,0,0,1,.354-.354h2.11a.354.354,0,0,1,.354.354v.354a3.8,3.8,0,0,1,2.393-.85.355.355,0,0,1,.356.354v1.684c0,.16-.106.337-.266.337" transform="translate(-44.091 -35.278)" fill="#17100d"/><path d="M295.5,324.092h-.055c-.85-.035-2.179-.141-3.686-.141-1.436,0-2.322.691-2.322,3.013v2.216c0,2.445,1.117,3.013,1.985,3.013.5,0,.939-.018,1.365-.053v-4.077a.34.34,0,0,1,.336-.354h2.269a.355.355,0,0,1,.354.354v5.955c0,.248-.087.355-.354.408a19.235,19.235,0,0,1-3.971.372c-2.02,0-5.051-1.152-5.051-5.637v-2.2c0-4.519,2.818-5.653,5.389-5.653a16.7,16.7,0,0,1,3.7.408c.177.035.3.106.3.265v1.879c0,.2-.105.23-.265.23" transform="translate(-33.603 -37.703)" fill="#17100d"/><path d="M306.953,335.041h-1.985a.355.355,0,0,1-.354-.354V334.4a3.912,3.912,0,0,1-2.464.8,2.764,2.764,0,0,1-3.031-3.05v-.159c0-2.074,1.329-3,4.36-3h.957v-.637c0-1.011-.5-1.223-1.328-1.223-1.135,0-2.393.071-2.943.124h-.088a.288.288,0,0,1-.319-.319V325.5a.394.394,0,0,1,.336-.389,14.252,14.252,0,0,1,3.066-.372c2.553,0,4.147,1.028,4.147,3.616v6.328a.355.355,0,0,1-.354.354M304.49,330.7h-1.011c-1.241,0-1.56.425-1.56,1.294v.159c0,.745.372.886,1.117.886a3.283,3.283,0,0,0,1.453-.389Z" transform="translate(-35.099 -38.106)" fill="#17100d"/><path d="M316.105,327.118h-.141a4.777,4.777,0,0,0-2.287.62v6.931a.372.372,0,0,1-.354.372h-2.145a.388.388,0,0,1-.372-.372v-9.429a.355.355,0,0,1,.354-.354h2.11a.354.354,0,0,1,.354.354v.354a3.8,3.8,0,0,1,2.393-.85.356.356,0,0,1,.356.355v1.683c0,.16-.107.337-.267.337" transform="translate(-36.471 -38.106)" fill="#17100d"/><path d="M325.749,335.041h-1.985a.355.355,0,0,1-.354-.354V334.4a3.912,3.912,0,0,1-2.464.8,2.764,2.764,0,0,1-3.031-3.05v-.159c0-2.074,1.329-3,4.36-3h.957v-.637c0-1.011-.5-1.223-1.328-1.223-1.135,0-2.393.071-2.943.124h-.088a.288.288,0,0,1-.319-.319V325.5a.394.394,0,0,1,.336-.389,14.252,14.252,0,0,1,3.066-.372c2.553,0,4.147,1.028,4.147,3.616v6.328a.355.355,0,0,1-.354.354m-2.463-4.343h-1.011c-1.241,0-1.56.425-1.56,1.294v.159c0,.745.372.886,1.117.886a3.283,3.283,0,0,0,1.453-.389Z" transform="translate(-37.305 -38.106)" fill="#17100d"/><path d="M337.95,335.041h-2.145a.371.371,0,0,1-.354-.372v-5.9c0-1.242-.231-1.649-1.312-1.649a3.8,3.8,0,0,0-1.666.568v6.983a.371.371,0,0,1-.354.372h-2.145a.387.387,0,0,1-.372-.372V325.24a.356.356,0,0,1,.354-.355h1.985a.357.357,0,0,1,.356.355v.425a4.468,4.468,0,0,1,2.888-.921c2.57,0,3.138,1.79,3.138,4.024v5.9a.387.387,0,0,1-.372.372" transform="translate(-38.676 -38.106)" fill="#17100d"/><path d="M347.076,334.789a7.692,7.692,0,0,1-1.4.141c-1.95,0-2.978-.514-2.978-3.03v-5.141l-1.418-.23a.415.415,0,0,1-.372-.372v-1.17a.386.386,0,0,1,.372-.372H342.7v-1.454a.38.38,0,0,1,.354-.355l2.163-.372h.053a.3.3,0,0,1,.319.3v1.879h1.454a.354.354,0,0,1,.354.354v1.436a.354.354,0,0,1-.354.354h-1.454v5.157c0,.71.053.833.585.833h.869c.23,0,.372.107.372.3v1.383a.364.364,0,0,1-.337.355" transform="translate(-40.003 -37.835)" fill="#17100d"/><path d="M352.764,323.285h-2.3a.355.355,0,0,1-.355-.354v-1.648a.355.355,0,0,1,.355-.355h2.3a.355.355,0,0,1,.355.355v1.648a.355.355,0,0,1-.355.354m-.071,11.309h-2.162a.356.356,0,0,1-.356-.354v-9.447a.356.356,0,0,1,.356-.355h2.162a.355.355,0,0,1,.354.355v9.447a.355.355,0,0,1-.354.354" transform="translate(-41.082 -37.658)" fill="#17100d"/><path d="M361.227,327.118h-.141a4.777,4.777,0,0,0-2.287.62v6.931a.372.372,0,0,1-.354.372H356.3a.388.388,0,0,1-.372-.372v-9.429a.355.355,0,0,1,.354-.354h2.11a.354.354,0,0,1,.354.354v.354a3.8,3.8,0,0,1,2.393-.85.356.356,0,0,1,.356.355v1.683c0,.16-.107.337-.267.337" transform="translate(-41.765 -38.106)" fill="#17100d"/><path d="M46.552,269.69c-.594,0-1.385-.049-2-.074v6.009a.5.5,0,0,1-.5.494H40.865a.475.475,0,0,1-.5-.47V259.032c0-.84.347-1.063,1.113-1.187a36.569,36.569,0,0,1,5.019-.321c3.735,0,7.42,1.311,7.42,5.96v.222c0,4.624-3.685,5.984-7.369,5.984m3.165-6.206c0-1.756-1.087-2.448-3.165-2.448-.347,0-1.707.049-2,.074v5.043c.272.026,1.73.05,2,.05,2.2,0,3.165-.816,3.165-2.5Z" transform="translate(-4.737 -30.218)" fill="#fff"/><path d="M72.434,276.12H68.651c-.273,0-.371-.248-.5-.5l-3.313-6.255-.271.025c-.52,0-1.286-.049-1.756-.049v6.28a.5.5,0,0,1-.5.5H59.106a.5.5,0,0,1-.494-.5V259.032c0-.84.346-1.063,1.113-1.186a38.951,38.951,0,0,1,5.019-.322c4.2,0,7.443,1.41,7.443,5.787v.321A4.986,4.986,0,0,1,69,268.578l3.734,6.972a.638.638,0,0,1,.075.273c0,.173-.1.3-.372.3m-4.451-12.809c0-1.508-1.162-2.2-3.239-2.2-.346,0-1.632.049-1.928.074v4.748c.271.025,1.483.049,1.756.049,2.6,0,3.411-.666,3.411-2.349Z" transform="translate(-6.878 -30.218)" fill="#fff"/><path d="M83.921,276.341c-4.081,0-7.32-2.2-7.32-7.936v-2.944c0-5.737,3.239-7.938,7.32-7.938s7.319,2.2,7.319,7.938v2.944c0,5.736-3.239,7.936-7.319,7.936m3.066-10.88c0-2.967-.989-4.228-3.066-4.228s-3.042,1.26-3.042,4.228v2.944c0,2.966.965,4.227,3.042,4.227s3.066-1.261,3.066-4.227Z" transform="translate(-8.989 -30.218)" fill="#fff"/><path d="M107.164,275.922a14.053,14.053,0,0,1-3.685.42c-3.759,0-7.319-1.979-7.319-7.864v-3.116c0-5.885,3.56-7.839,7.319-7.839a14.04,14.04,0,0,1,3.685.421c.347.1.544.2.544.544v2.4a.436.436,0,0,1-.47.493h-.074c-.939-.074-2.3-.2-3.66-.2-1.705,0-3.065.891-3.065,4.178v3.116c0,3.289,1.36,4.179,3.065,4.179,1.36,0,2.721-.124,3.66-.2h.074a.437.437,0,0,1,.47.5v2.4c0,.347-.2.47-.544.569" transform="translate(-11.284 -30.218)" fill="#fff"/><path d="M123.077,276.02a29.065,29.065,0,0,1-4.8.321c-3.189,0-6.008-.816-6.008-5.315v-8.211c0-4.5,2.844-5.292,6.034-5.292a28.883,28.883,0,0,1,4.773.321c.346.05.5.173.5.5v2.3a.5.5,0,0,1-.5.5h-5.02c-1.162,0-1.583.4-1.583,1.681v2.251h6.4a.5.5,0,0,1,.5.494v2.35a.5.5,0,0,1-.5.494h-6.4v2.621c0,1.285.42,1.681,1.583,1.681h5.02a.5.5,0,0,1,.5.5v2.3c0,.321-.149.47-.5.519" transform="translate(-13.174 -30.218)" fill="#fff"/><path d="M133.535,276.342a18.367,18.367,0,0,1-4.674-.544c-.247-.074-.494-.222-.494-.494v-2.424a.411.411,0,0,1,.445-.47h.074c1.014.1,3.735.3,4.7.3,1.706,0,2.2-.544,2.2-1.731,0-.718-.347-1.113-1.633-1.879l-3.412-2.027c-2.3-1.36-2.918-2.919-2.918-4.723,0-2.719,1.534-4.822,6.33-4.822a27.317,27.317,0,0,1,5.243.544.436.436,0,0,1,.371.446v2.5a.377.377,0,0,1-.42.42h-.05c-.692-.049-3.561-.272-5.242-.272-1.41,0-1.929.42-1.929,1.311,0,.692.322,1.014,1.657,1.731l3.165,1.706c2.571,1.385,3.338,3.017,3.338,5.02,0,2.621-1.731,5.415-6.751,5.415" transform="translate(-14.999 -30.219)" fill="#fff"/><path d="M150.011,276.342a18.36,18.36,0,0,1-4.673-.544c-.247-.074-.494-.222-.494-.494v-2.424a.41.41,0,0,1,.444-.47h.074c1.014.1,3.735.3,4.7.3,1.705,0,2.2-.544,2.2-1.731,0-.718-.347-1.113-1.632-1.879l-3.412-2.027c-2.3-1.36-2.918-2.919-2.918-4.723,0-2.719,1.533-4.822,6.33-4.822a27.307,27.307,0,0,1,5.242.544.436.436,0,0,1,.372.446v2.5a.377.377,0,0,1-.421.42h-.049c-.693-.049-3.561-.272-5.242-.272-1.41,0-1.929.42-1.929,1.311,0,.692.322,1.014,1.657,1.731l3.165,1.706c2.572,1.385,3.338,3.017,3.338,5.02,0,2.621-1.731,5.415-6.751,5.415" transform="translate(-16.932 -30.219)" fill="#fff"/><path d="M168.4,276.341c-4.08,0-7.319-2.2-7.319-7.936v-2.944c0-5.737,3.239-7.938,7.319-7.938s7.32,2.2,7.32,7.938v2.944c0,5.736-3.239,7.936-7.32,7.936m3.066-10.88c0-2.967-.989-4.228-3.066-4.228s-3.041,1.26-3.041,4.228v2.944c0,2.966.964,4.227,3.041,4.227s3.066-1.261,3.066-4.227Z" transform="translate(-18.902 -30.218)" fill="#fff"/><path d="M186.046,276.342a18.367,18.367,0,0,1-4.674-.544c-.247-.074-.494-.222-.494-.494v-2.424a.411.411,0,0,1,.445-.47h.074c1.014.1,3.735.3,4.7.3,1.706,0,2.2-.544,2.2-1.731,0-.718-.347-1.113-1.633-1.879l-3.412-2.027c-2.3-1.36-2.918-2.919-2.918-4.723,0-2.719,1.534-4.822,6.33-4.822a27.318,27.318,0,0,1,5.243.544.436.436,0,0,1,.371.446v2.5a.377.377,0,0,1-.42.42h-.05c-.692-.049-3.561-.272-5.242-.272-1.41,0-1.929.42-1.929,1.311,0,.692.322,1.014,1.657,1.731l3.165,1.706c2.571,1.385,3.338,3.017,3.338,5.02,0,2.621-1.731,5.415-6.751,5.415" transform="translate(-21.161 -30.219)" fill="#fff"/><path d="M71.637,310.35H69.09a.387.387,0,0,1-.363-.327l-.655-2.983H64.345l-.654,2.983a.387.387,0,0,1-.364.327H60.782a.281.281,0,0,1-.309-.29.857.857,0,0,0,.018-.092L63.2,298.7c.418-1.746,1.764-2.018,3.019-2.018s2.582.272,3,2.018l2.709,11.272a.82.82,0,0,0,.019.092.281.281,0,0,1-.309.29m-5.182-10.819c-.036-.181-.072-.273-.237-.273s-.218.092-.255.273l-1.108,5.019h2.709Z" transform="translate(-7.096 -34.813)" fill="#17100d"/><path d="M79.537,310.928a12.54,12.54,0,0,1-1.49-.128v3.147a.365.365,0,0,1-.365.364h-2.2a.38.38,0,0,1-.381-.364V301.2c0-.291.073-.418.563-.527a17.1,17.1,0,0,1,3.872-.472c2.946,0,4.565,1.709,4.565,4.654v1.418c0,2.855-1.493,4.655-4.565,4.655m1.62-6.073c0-1.291-.328-2.219-1.62-2.219a10.415,10.415,0,0,0-1.49.092V308.4a13.867,13.867,0,0,0,1.49.109c1.291,0,1.62-.964,1.62-2.238Z" transform="translate(-8.813 -35.226)" fill="#17100d"/><path d="M95.8,306.473H90v.036a1.738,1.738,0,0,0,1.873,1.982c1.146,0,2.764-.092,3.491-.164h.055c.2,0,.345.091.345.29V310c0,.291-.073.418-.381.491a13.917,13.917,0,0,1-3.727.436c-2.2,0-4.564-1.163-4.564-4.672v-1.274c0-2.927,1.71-4.781,4.6-4.781,2.982,0,4.491,2.036,4.491,4.781v1.055c0,.273-.146.437-.382.437m-2.491-1.892c0-1.345-.618-2.018-1.636-2.018-1,0-1.673.691-1.673,2.018v.073h3.309Z" transform="translate(-10.22 -35.226)" fill="#17100d"/><path d="M105,302.636h-.146a4.895,4.895,0,0,0-2.345.637v7.108a.381.381,0,0,1-.364.382h-2.2a.4.4,0,0,1-.381-.382v-9.673a.364.364,0,0,1,.364-.363h2.163a.364.364,0,0,1,.364.363v.365a3.892,3.892,0,0,1,2.454-.873.366.366,0,0,1,.365.364v1.727c0,.163-.109.345-.273.345" transform="translate(-11.683 -35.226)" fill="#17100d"/><path d="M113.331,298.42h-.891c-.545,0-.6.128-.6.854v.6h1.491a.364.364,0,0,1,.364.364v1.473a.365.365,0,0,1-.364.364H111.84v7.854a.365.365,0,0,1-.365.364h-2.236a.365.365,0,0,1-.364-.364v-7.854l-1.455-.237a.426.426,0,0,1-.382-.382v-1.2a.4.4,0,0,1,.382-.381h1.455v-.582c0-2.583,1.054-3.11,3.055-3.11a7.856,7.856,0,0,1,1.436.146.373.373,0,0,1,.346.364v1.418c0,.2-.146.31-.382.31" transform="translate(-12.56 -34.755)" fill="#17100d"/><path d="M124.484,306.473h-5.8v.036a1.738,1.738,0,0,0,1.873,1.982c1.146,0,2.764-.092,3.491-.164h.055c.2,0,.345.091.345.29V310c0,.291-.073.418-.381.491a13.918,13.918,0,0,1-3.727.436c-2.2,0-4.564-1.163-4.564-4.672v-1.274c0-2.927,1.71-4.781,4.6-4.781,2.982,0,4.491,2.036,4.491,4.781v1.055c0,.273-.146.437-.382.437m-2.491-1.892c0-1.345-.618-2.018-1.636-2.018-1,0-1.673.691-1.673,2.018v.073h3.309Z" transform="translate(-13.585 -35.226)" fill="#17100d"/><path d="M130.968,298.7H128.6a.364.364,0,0,1-.364-.363V296.65a.365.365,0,0,1,.364-.364h2.364a.365.365,0,0,1,.364.364v1.691a.363.363,0,0,1-.364.363m-.072,11.6h-2.219a.365.365,0,0,1-.364-.364v-9.692a.365.365,0,0,1,.364-.363H130.9a.363.363,0,0,1,.363.363v9.692a.364.364,0,0,1-.363.364" transform="translate(-15.048 -34.767)" fill="#17100d"/><path d="M140.56,310.655a10.081,10.081,0,0,1-2.418.272c-2.563,0-4.237-1.636-4.237-4.6V304.8c0-2.964,1.674-4.6,4.237-4.6a10.024,10.024,0,0,1,2.418.273c.274.073.382.146.382.417v1.619a.327.327,0,0,1-.346.309h-.036a17.417,17.417,0,0,0-2.217-.127c-.817,0-1.492.491-1.492,2.109v1.527c0,1.619.674,2.11,1.492,2.11a17.411,17.411,0,0,0,2.217-.127h.036a.327.327,0,0,1,.346.309v1.619c0,.273-.109.345-.382.418m-1.271,1.018-2.238,2.218c-.163.146-.2.218-.436.218H134.67c-.109,0-.182-.055-.182-.127a.343.343,0,0,1,.09-.182l1.691-2.127a.5.5,0,0,1,.492-.273h2.4c.109,0,.2.055.2.127a.219.219,0,0,1-.072.146" transform="translate(-15.713 -35.226)" fill="#17100d"/><path d="M147.557,310.928c-2.945,0-4.563-1.836-4.563-4.728v-1.273c0-2.891,1.618-4.727,4.563-4.727s4.546,1.836,4.546,4.727V306.2c0,2.892-1.6,4.728-4.546,4.728m1.619-6c0-1.472-.564-2.218-1.619-2.218s-1.636.746-1.636,2.218V306.2c0,1.472.583,2.237,1.636,2.237s1.619-.764,1.619-2.237Z" transform="translate(-16.779 -35.226)" fill="#17100d"/><path d="M163.084,310.764h-2.035a.365.365,0,0,1-.364-.364v-.29a4.013,4.013,0,0,1-2.528.817,2.834,2.834,0,0,1-3.109-3.127v-.163c0-2.127,1.364-3.073,4.472-3.073h.982v-.654c0-1.036-.508-1.255-1.363-1.255-1.164,0-2.456.073-3.018.128h-.092a.3.3,0,0,1-.327-.327v-1.472a.406.406,0,0,1,.346-.4,14.6,14.6,0,0,1,3.145-.382c2.619,0,4.254,1.054,4.254,3.709V310.4a.365.365,0,0,1-.364.364m-2.527-4.455H159.52c-1.272,0-1.6.437-1.6,1.327v.163c0,.764.381.91,1.146.91a3.363,3.363,0,0,0,1.49-.4Z" transform="translate(-18.194 -35.226)" fill="#17100d"/><path d="M172.475,302.636h-.145a4.889,4.889,0,0,0-2.345.637v7.108a.381.381,0,0,1-.364.382h-2.2a.4.4,0,0,1-.381-.382v-9.673a.364.364,0,0,1,.364-.363h2.163a.364.364,0,0,1,.364.363v.365a3.894,3.894,0,0,1,2.455-.873.366.366,0,0,1,.365.364v1.727c0,.163-.109.345-.274.345" transform="translate(-19.601 -35.226)" fill="#17100d"/><path d="M79.054,335.077H76.509a.387.387,0,0,1-.364-.327l-.654-2.983H71.764l-.656,2.983a.387.387,0,0,1-.364.327H68.2a.281.281,0,0,1-.308-.29.9.9,0,0,0,.017-.092l2.709-11.272c.418-1.746,1.764-2.018,3.018-2.018s2.583.272,3,2.018L79.345,334.7a.787.787,0,0,0,.019.092.283.283,0,0,1-.311.29m-5.181-10.819c-.036-.181-.072-.273-.237-.273s-.218.092-.254.273l-1.109,5.019h2.709Z" transform="translate(-7.967 -37.714)" fill="#17100d"/><path d="M85.876,335.654a14.233,14.233,0,0,1-3.309-.4.411.411,0,0,1-.345-.418v-1.473a.334.334,0,0,1,.345-.345h.073c.982.127,2.509.255,3.091.255.872,0,1.072-.237,1.072-.71,0-.273-.164-.472-.673-.763l-2.364-1.364a3,3,0,0,1-1.619-2.691c0-1.836,1.218-2.817,3.727-2.817a11.8,11.8,0,0,1,3.237.417.412.412,0,0,1,.346.418v1.473a.307.307,0,0,1-.31.345h-.055a29.038,29.038,0,0,0-3.018-.237c-.709,0-.964.109-.964.528,0,.272.2.417.563.635l2.255,1.291a3.01,3.01,0,0,1,1.836,2.8c0,1.71-1.236,3.055-3.891,3.055" transform="translate(-9.64 -38.128)" fill="#17100d"/><path d="M96.24,335.654a14.233,14.233,0,0,1-3.309-.4.411.411,0,0,1-.345-.418v-1.473a.334.334,0,0,1,.345-.345H93c.982.127,2.509.255,3.091.255.872,0,1.072-.237,1.072-.71,0-.273-.164-.472-.673-.763l-2.364-1.364a3,3,0,0,1-1.619-2.691c0-1.836,1.218-2.817,3.727-2.817a11.8,11.8,0,0,1,3.237.417.412.412,0,0,1,.346.418v1.473a.307.307,0,0,1-.31.345h-.055a29.038,29.038,0,0,0-3.018-.237c-.709,0-.964.109-.964.528,0,.272.2.417.563.635L98.3,329.8a3.01,3.01,0,0,1,1.836,2.8c0,1.71-1.236,3.055-3.891,3.055" transform="translate(-10.856 -38.128)" fill="#17100d"/><path d="M111.648,331.2h-5.8v.036a1.738,1.738,0,0,0,1.873,1.982c1.146,0,2.764-.092,3.491-.164h.055c.2,0,.345.091.345.29v1.382c0,.291-.072.417-.381.491a13.916,13.916,0,0,1-3.727.436c-2.2,0-4.564-1.163-4.564-4.672v-1.274c0-2.927,1.71-4.781,4.6-4.781,2.982,0,4.491,2.036,4.491,4.781v1.055c0,.273-.145.437-.382.437m-2.49-1.891c0-1.345-.619-2.018-1.636-2.018-1,0-1.674.691-1.674,2.018v.073h3.31Z" transform="translate(-12.079 -38.128)" fill="#17100d"/><path d="M124.444,327l-.563.182a2.78,2.78,0,0,1,.4,1.345v.146c0,2.364-1.654,3.4-4.491,3.4a5.536,5.536,0,0,1-1.892-.274.453.453,0,0,0-.254.418c0,.291.109.418.546.509l2.055.454c3.163.692,4.254,1.182,4.254,2.928v.146c0,2-1.564,2.963-4.764,2.963-3.018,0-4.618-1.054-4.618-2.963v-.146a2.478,2.478,0,0,1,1.091-2.036,1.928,1.928,0,0,1-.927-1.691,1.951,1.951,0,0,1,.8-1.546,3,3,0,0,1-.836-2.163v-.146c0-2.054,1.364-3.436,4.545-3.436h4.528a.466.466,0,0,1,.455.473V326.6c0,.255-.109.328-.328.4m-2.945,9.109c0-.345-.237-.582-1.874-.945l-1.345-.291a1.858,1.858,0,0,0-.363,1.237v.146c0,.618.418.928,1.817.928,1.492,0,1.764-.382,1.764-.928Zm-.091-7.582c0-.746-.327-1.309-1.619-1.309s-1.654.563-1.654,1.309v.146c0,.618.273,1.273,1.654,1.273,1.273,0,1.619-.491,1.619-1.273Z" transform="translate(-13.508 -38.147)" fill="#17100d"/><path d="M136.329,335.509h-2.036a.365.365,0,0,1-.364-.364v-.436a4.586,4.586,0,0,1-2.964.945c-2.636,0-3.218-1.836-3.218-4.127v-6.055a.4.4,0,0,1,.382-.381h2.2a.38.38,0,0,1,.364.381v6.055c0,1.274.237,1.691,1.346,1.691a3.9,3.9,0,0,0,1.709-.583v-7.164a.38.38,0,0,1,.364-.381h2.2a.4.4,0,0,1,.382.381v9.673a.365.365,0,0,1-.364.364" transform="translate(-14.99 -38.147)" fill="#17100d"/><path d="M145.794,327.362h-.146A4.9,4.9,0,0,0,143.3,328v7.108a.381.381,0,0,1-.364.382h-2.2a.4.4,0,0,1-.381-.382v-9.673a.364.364,0,0,1,.364-.363h2.163a.364.364,0,0,1,.364.363v.365a3.892,3.892,0,0,1,2.454-.873.366.366,0,0,1,.365.364v1.727c0,.163-.109.345-.273.345" transform="translate(-16.47 -38.128)" fill="#17100d"/><path d="M155.668,335.491h-2.035a.365.365,0,0,1-.364-.364v-.29a4.012,4.012,0,0,1-2.528.817,2.834,2.834,0,0,1-3.109-3.127v-.163c0-2.127,1.364-3.073,4.472-3.073h.982v-.654c0-1.036-.508-1.255-1.363-1.255-1.164,0-2.456.073-3.018.128h-.092a.3.3,0,0,1-.327-.327v-1.472a.406.406,0,0,1,.346-.4,14.6,14.6,0,0,1,3.145-.382c2.619,0,4.254,1.054,4.254,3.709v6.491a.365.365,0,0,1-.364.364m-2.527-4.455H152.1c-1.272,0-1.6.437-1.6,1.328v.163c0,.764.381.91,1.146.91a3.362,3.362,0,0,0,1.49-.4Z" transform="translate(-17.323 -38.128)" fill="#17100d"/><path d="M165.06,327.362h-.146a4.9,4.9,0,0,0-2.345.637v7.108a.381.381,0,0,1-.364.382h-2.2a.4.4,0,0,1-.381-.382v-9.673a.364.364,0,0,1,.364-.363h2.163a.364.364,0,0,1,.364.363v.365a3.892,3.892,0,0,1,2.454-.873.366.366,0,0,1,.365.364v1.727c0,.163-.109.345-.273.345" transform="translate(-18.731 -38.128)" fill="#17100d"/><path d="M101.514,102.563A102.563,102.563,0,1,1,204.077,205.126,102.563,102.563,0,0,1,101.514,102.563" transform="translate(-11.912)" fill="#009dcc"/><path d="M182.9,124.348h-2.546a.387.387,0,0,1-.363-.327l-.655-2.982h-3.727l-.654,2.982a.388.388,0,0,1-.364.327h-2.546a.282.282,0,0,1-.309-.291.793.793,0,0,0,.018-.091l2.709-11.272c.418-1.746,1.764-2.019,3.019-2.019s2.582.273,3,2.019l2.709,11.272a.759.759,0,0,0,.019.091.282.282,0,0,1-.309.291m-5.182-10.819c-.036-.182-.073-.273-.237-.273s-.218.091-.255.273l-1.108,5.019h2.709Z" transform="translate(-20.152 -12.987)" fill="#17100d"/><path d="M190.805,124.925a12.707,12.707,0,0,1-1.49-.127v3.146a.366.366,0,0,1-.365.364h-2.2a.381.381,0,0,1-.381-.364V115.2c0-.29.073-.417.563-.527a17.117,17.117,0,0,1,3.873-.472c2.945,0,4.564,1.709,4.564,4.654v1.418c0,2.855-1.492,4.654-4.564,4.654m1.619-6.073c0-1.29-.327-2.218-1.619-2.218a10.422,10.422,0,0,0-1.49.091V122.4a13.641,13.641,0,0,0,1.49.109c1.291,0,1.619-.964,1.619-2.237Z" transform="translate(-21.869 -13.4)" fill="#17100d"/><path d="M204.106,116.633h-.146a4.9,4.9,0,0,0-2.344.636v7.11a.38.38,0,0,1-.364.381h-2.2a.4.4,0,0,1-.381-.381v-9.674a.364.364,0,0,1,.364-.362H201.2a.364.364,0,0,1,.364.362v.365a3.9,3.9,0,0,1,2.455-.872.365.365,0,0,1,.365.363v1.727c0,.163-.109.345-.274.345" transform="translate(-23.312 -13.4)" fill="#17100d"/><path d="M215.229,120.471h-5.8v.036a1.737,1.737,0,0,0,1.873,1.982c1.146,0,2.764-.091,3.491-.163h.055c.2,0,.345.091.345.29V124c0,.29-.072.417-.381.491a13.916,13.916,0,0,1-3.727.436c-2.2,0-4.564-1.163-4.564-4.672v-1.274c0-2.927,1.71-4.781,4.6-4.781,2.982,0,4.491,2.036,4.491,4.781v1.055c0,.273-.146.437-.382.437m-2.491-1.892c0-1.345-.618-2.019-1.636-2.019-1,0-1.673.692-1.673,2.019v.073h3.309Z" transform="translate(-24.234 -13.4)" fill="#17100d"/><path d="M227.551,124.761h-2.2a.379.379,0,0,1-.363-.381v-6.054c0-1.273-.237-1.691-1.346-1.691a3.909,3.909,0,0,0-1.709.582v7.164a.38.38,0,0,1-.364.381h-2.2a.4.4,0,0,1-.381-.381v-9.674a.363.363,0,0,1,.364-.362h2.036a.364.364,0,0,1,.364.362v.438a4.583,4.583,0,0,1,2.963-.945c2.637,0,3.219,1.836,3.219,4.127v6.054a.4.4,0,0,1-.382.381" transform="translate(-25.696 -13.4)" fill="#17100d"/><path d="M239.662,124a17.047,17.047,0,0,1-3.872.474c-2.945,0-4.563-1.711-4.563-4.655V118.4c0-2.854,1.491-4.653,4.563-4.653a12.727,12.727,0,0,1,1.491.126v-3.146a.365.365,0,0,1,.364-.363h2.2a.381.381,0,0,1,.382.363v12.746c0,.292-.072.418-.564.528m-2.381-7.728a13.835,13.835,0,0,0-1.491-.091c-1.29,0-1.618.946-1.618,2.218v1.419c0,1.29.327,2.237,1.618,2.237a10.013,10.013,0,0,0,1.491-.11Z" transform="translate(-27.133 -12.951)" fill="#17100d"/><path d="M252.3,120.471h-5.8v.036a1.737,1.737,0,0,0,1.873,1.982c1.146,0,2.764-.091,3.491-.163h.055c.2,0,.345.091.345.29V124c0,.29-.072.417-.381.491a13.916,13.916,0,0,1-3.727.436c-2.2,0-4.564-1.163-4.564-4.672v-1.274c0-2.927,1.71-4.781,4.6-4.781,2.982,0,4.491,2.036,4.491,4.781v1.055c0,.273-.146.437-.382.437m-2.491-1.892c0-1.345-.618-2.019-1.636-2.019-1,0-1.673.692-1.673,2.019v.073h3.309Z" transform="translate(-28.583 -13.4)" fill="#17100d"/><path d="M261.491,116.633h-.146a4.9,4.9,0,0,0-2.345.636v7.11a.38.38,0,0,1-.364.381h-2.2a.4.4,0,0,1-.381-.381v-9.674a.363.363,0,0,1,.364-.362h2.163a.364.364,0,0,1,.364.362v.365a3.9,3.9,0,0,1,2.454-.872.365.365,0,0,1,.365.363v1.727c0,.163-.109.345-.273.345" transform="translate(-30.046 -13.4)" fill="#17100d"/><path d="M179.661,148.826a10.227,10.227,0,0,1-2.709.311c-2.764,0-5.382-1.455-5.382-5.783v-2.29c0-4.327,2.618-5.764,5.382-5.764a10.381,10.381,0,0,1,2.709.308c.255.074.4.147.4.4v1.764a.321.321,0,0,1-.345.364h-.055c-.69-.055-1.69-.146-2.69-.146-1.255,0-2.255.655-2.255,3.073v2.29c0,2.419,1,3.073,2.255,3.073,1,0,2-.091,2.69-.146h.055a.321.321,0,0,1,.345.364v1.763c0,.255-.145.347-.4.418" transform="translate(-20.133 -15.876)" fill="#17100d"/><path d="M187.508,149.549c-2.945,0-4.564-1.837-4.564-4.728v-1.273c0-2.891,1.619-4.728,4.564-4.728s4.545,1.837,4.545,4.728v1.273c0,2.891-1.6,4.728-4.545,4.728m1.618-6c0-1.472-.564-2.218-1.618-2.218s-1.637.746-1.637,2.218v1.273c0,1.472.583,2.237,1.637,2.237s1.618-.764,1.618-2.237Z" transform="translate(-21.467 -16.29)" fill="#17100d"/><path d="M198.01,148.935h-2.219a.4.4,0,0,1-.381-.382v-13.2a.381.381,0,0,1,.381-.364h2.219a.35.35,0,0,1,.346.364v13.2a.366.366,0,0,1-.346.382" transform="translate(-22.93 -15.84)" fill="#17100d"/><path d="M208.845,149.386h-2.036a.365.365,0,0,1-.364-.364v-.291a4.005,4.005,0,0,1-2.527.818,2.834,2.834,0,0,1-3.11-3.127v-.163c0-2.127,1.365-3.073,4.472-3.073h.982v-.654c0-1.036-.509-1.255-1.364-1.255-1.163,0-2.455.073-3.018.128h-.091a.3.3,0,0,1-.327-.327V139.6a.407.407,0,0,1,.346-.4,14.659,14.659,0,0,1,3.145-.381c2.618,0,4.254,1.054,4.254,3.709v6.491a.365.365,0,0,1-.364.364m-2.527-4.455H205.28c-1.272,0-1.6.437-1.6,1.327v.163c0,.764.381.909,1.146.909a3.37,3.37,0,0,0,1.491-.4Z" transform="translate(-23.563 -16.29)" fill="#17100d"/><path d="M217.237,149.1a17.105,17.105,0,0,1-3.873-.472c-.491-.109-.563-.237-.563-.528V135.354a.381.381,0,0,1,.381-.364h2.2a.366.366,0,0,1,.365.364V138.5a12.732,12.732,0,0,1,1.491-.127c3.072,0,4.563,1.8,4.563,4.654v1.418c0,2.945-1.618,4.654-4.563,4.654m1.618-6.073c0-1.273-.327-2.218-1.618-2.218a13.611,13.611,0,0,0-1.491.091v5.673a10.012,10.012,0,0,0,1.491.109c1.29,0,1.618-.946,1.618-2.237Z" transform="translate(-24.971 -15.84)" fill="#17100d"/><path d="M229.335,149.549c-2.946,0-4.564-1.837-4.564-4.728v-1.273c0-2.891,1.618-4.728,4.564-4.728s4.545,1.837,4.545,4.728v1.273c0,2.891-1.6,4.728-4.545,4.728m1.618-6c0-1.472-.564-2.218-1.618-2.218s-1.637.746-1.637,2.218v1.273c0,1.472.583,2.237,1.637,2.237s1.618-.764,1.618-2.237Z" transform="translate(-26.375 -16.29)" fill="#17100d"/><path d="M242.673,141.257h-.146a4.9,4.9,0,0,0-2.345.636V149a.381.381,0,0,1-.364.382h-2.2a.4.4,0,0,1-.381-.382V139.33a.363.363,0,0,1,.364-.362h2.163a.364.364,0,0,1,.364.362v.365a3.9,3.9,0,0,1,2.454-.872.365.365,0,0,1,.365.363v1.727c0,.163-.109.345-.273.345" transform="translate(-27.838 -16.29)" fill="#17100d"/><path d="M253.02,149.386h-2.035a.365.365,0,0,1-.364-.364v-.291a4.01,4.01,0,0,1-2.528.818,2.834,2.834,0,0,1-3.109-3.127v-.163c0-2.127,1.364-3.073,4.472-3.073h.982v-.654c0-1.036-.509-1.255-1.363-1.255-1.164,0-2.456.073-3.019.128h-.091a.3.3,0,0,1-.327-.327V139.6a.407.407,0,0,1,.346-.4,14.659,14.659,0,0,1,3.145-.381c2.619,0,4.254,1.054,4.254,3.709v6.491a.365.365,0,0,1-.364.364m-2.527-4.455h-1.036c-1.273,0-1.6.437-1.6,1.327v.163c0,.764.381.909,1.145.909a3.367,3.367,0,0,0,1.491-.4Z" transform="translate(-28.747 -16.29)" fill="#17100d"/><path d="M262.412,141.257h-.146a4.9,4.9,0,0,0-2.345.636V149a.381.381,0,0,1-.364.382h-2.2a.4.4,0,0,1-.381-.382V139.33a.363.363,0,0,1,.363-.362H259.5a.364.364,0,0,1,.364.362v.365a3.9,3.9,0,0,1,2.454-.872.365.365,0,0,1,.365.363v1.727c0,.163-.109.345-.273.345" transform="translate(-30.154 -16.29)" fill="#17100d"/><path d="M194.045,173.253a21.425,21.425,0,0,1-3.527.237c-2.345,0-4.419-.6-4.419-3.909v-6.036c0-3.309,2.091-3.891,4.436-3.891a21.285,21.285,0,0,1,3.509.236c.254.037.364.128.364.364v1.691a.364.364,0,0,1-.364.364h-3.691c-.854,0-1.163.291-1.163,1.237V165.2H193.9a.364.364,0,0,1,.364.364v1.727a.364.364,0,0,1-.364.363H189.19v1.928c0,.945.31,1.237,1.163,1.237h3.691a.364.364,0,0,1,.364.364v1.69c0,.237-.109.346-.364.382" transform="translate(-21.837 -18.734)" fill="#17100d"/><path d="M206.959,163.758l-2.291,8.255a2.762,2.762,0,0,1-5.254,0l-2.273-8.255a.228.228,0,0,1-.019-.109.292.292,0,0,1,.292-.309h2.4c.182,0,.327.163.382.382l1.563,7.127c.055.273.146.381.274.381s.237-.109.29-.381l1.564-7.127c.054-.219.2-.382.381-.382h2.4a.307.307,0,0,1,.31.309.228.228,0,0,1-.019.109" transform="translate(-23.131 -19.167)" fill="#17100d"/><path d="M214.193,173.9c-2.946,0-4.564-1.837-4.564-4.727V167.9c0-2.891,1.618-4.728,4.564-4.728s4.545,1.837,4.545,4.728v1.273c0,2.891-1.6,4.727-4.545,4.727m1.618-6c0-1.472-.564-2.218-1.618-2.218s-1.637.746-1.637,2.218v1.273c0,1.472.583,2.237,1.637,2.237s1.618-.764,1.618-2.237Z" transform="translate(-24.598 -19.147)" fill="#17100d"/><path d="M224.7,173.289h-2.218a.4.4,0,0,1-.381-.382v-13.2a.38.38,0,0,1,.381-.364H224.7a.35.35,0,0,1,.346.364v13.2a.365.365,0,0,1-.346.382" transform="translate(-26.061 -18.698)" fill="#17100d"/><path d="M236.487,173.758H234.45a.365.365,0,0,1-.364-.363v-.436a4.589,4.589,0,0,1-2.963.945c-2.636,0-3.218-1.837-3.218-4.127v-6.055a.4.4,0,0,1,.382-.382h2.2a.381.381,0,0,1,.364.382v6.055c0,1.273.237,1.69,1.346,1.69a3.906,3.906,0,0,0,1.709-.582v-7.164a.38.38,0,0,1,.363-.382h2.2a.4.4,0,0,1,.382.382V173.4a.364.364,0,0,1-.364.363" transform="translate(-26.743 -19.167)" fill="#17100d"/><path d="M243.243,161.68H240.88a.364.364,0,0,1-.364-.363v-1.691a.364.364,0,0,1,.364-.364h2.364a.364.364,0,0,1,.364.364v1.691a.364.364,0,0,1-.364.363m-.073,11.6h-2.218a.365.365,0,0,1-.364-.363v-9.692a.365.365,0,0,1,.364-.363h2.218a.364.364,0,0,1,.364.363v9.692a.364.364,0,0,1-.364.363" transform="translate(-28.223 -18.688)" fill="#17100d"/><path d="M251.928,165.611h-.146a4.889,4.889,0,0,0-2.345.636v7.109a.381.381,0,0,1-.364.382h-2.2a.4.4,0,0,1-.381-.382v-9.673a.363.363,0,0,1,.363-.363h2.164a.364.364,0,0,1,.364.363v.365a3.892,3.892,0,0,1,2.454-.873.365.365,0,0,1,.365.364v1.727c0,.163-.109.345-.273.345" transform="translate(-28.924 -19.147)" fill="#17100d"/><path d="M164.163,85.185c-.594,0-1.386-.05-2-.074v6.015a.5.5,0,0,1-.5.5h-3.193a.477.477,0,0,1-.5-.47V74.515c0-.841.347-1.064,1.114-1.188A36.374,36.374,0,0,1,164.114,73c3.738,0,7.427,1.313,7.427,5.966v.222c0,4.63-3.689,5.991-7.377,5.991m3.169-6.214c0-1.757-1.089-2.45-3.169-2.45-.346,0-1.708.049-2,.074v5.05c.271.025,1.733.049,2,.049,2.2,0,3.169-.816,3.169-2.5Z" transform="translate(-18.537 -8.567)" fill="#fff"/><path d="M186.969,91.521a29.188,29.188,0,0,1-4.8.322c-3.194,0-6.016-.817-6.016-5.322V78.3c0-4.506,2.847-5.3,6.04-5.3a28.693,28.693,0,0,1,4.778.322c.347.049.5.173.5.494v2.3a.5.5,0,0,1-.5.5h-5.025c-1.164,0-1.584.4-1.584,1.683v2.253h6.411a.5.5,0,0,1,.5.5V83.4a.5.5,0,0,1-.5.5h-6.411v2.624c0,1.287.42,1.683,1.584,1.683h5.025a.5.5,0,0,1,.5.5V91c0,.322-.148.47-.5.52" transform="translate(-20.67 -8.567)" fill="#fff"/><path d="M197.437,91.844a18.356,18.356,0,0,1-4.678-.545c-.248-.074-.5-.223-.5-.5V88.378a.411.411,0,0,1,.446-.47h.074c1.015.1,3.738.3,4.7.3,1.708,0,2.2-.545,2.2-1.733,0-.718-.347-1.114-1.635-1.881l-3.416-2.03c-2.3-1.362-2.922-2.922-2.922-4.728,0-2.723,1.536-4.827,6.337-4.827a27.344,27.344,0,0,1,5.248.545.436.436,0,0,1,.372.446v2.5a.377.377,0,0,1-.42.42h-.05c-.693-.049-3.565-.272-5.247-.272-1.411,0-1.931.421-1.931,1.312,0,.694.322,1.015,1.659,1.733l3.169,1.709c2.575,1.386,3.342,3.02,3.342,5.025,0,2.624-1.734,5.421-6.759,5.421" transform="translate(-22.497 -8.567)" fill="#fff"/><path d="M213.931,91.844a18.364,18.364,0,0,1-4.679-.545c-.247-.074-.494-.223-.494-.5V88.378a.411.411,0,0,1,.446-.47h.074c1.015.1,3.738.3,4.7.3,1.707,0,2.2-.545,2.2-1.733,0-.718-.347-1.114-1.635-1.881l-3.416-2.03c-2.3-1.362-2.922-2.922-2.922-4.728,0-2.723,1.536-4.827,6.337-4.827a27.352,27.352,0,0,1,5.248.545.436.436,0,0,1,.371.446v2.5a.377.377,0,0,1-.42.42H219.7c-.693-.049-3.565-.272-5.248-.272-1.411,0-1.931.421-1.931,1.312,0,.694.323,1.015,1.659,1.733l3.169,1.709c2.575,1.386,3.342,3.02,3.342,5.025,0,2.624-1.733,5.421-6.758,5.421" transform="translate(-24.432 -8.567)" fill="#fff"/><path d="M232.342,91.843c-4.084,0-7.327-2.2-7.327-7.946V80.951c0-5.743,3.243-7.946,7.327-7.946s7.328,2.2,7.328,7.946V83.9c0,5.743-3.244,7.946-7.328,7.946m3.07-10.892c0-2.97-.99-4.232-3.07-4.232s-3.045,1.262-3.045,4.232V83.9c0,2.97.966,4.232,3.045,4.232s3.07-1.262,3.07-4.232Z" transform="translate(-26.404 -8.567)" fill="#fff"/><path d="M258.84,91.62h-3.466a.526.526,0,0,1-.494-.446l-.891-4.059h-5.074l-.892,4.059a.527.527,0,0,1-.5.446h-3.465a.384.384,0,0,1-.421-.4,1.07,1.07,0,0,0,.025-.124l3.688-15.348c.57-2.376,2.4-2.748,4.111-2.748s3.515.372,4.084,2.748L259.236,91.1a1.038,1.038,0,0,0,.026.124.384.384,0,0,1-.421.4m-7.055-14.729c-.049-.248-.1-.372-.321-.372s-.3.124-.347.372l-1.51,6.832H253.3Z" transform="translate(-28.589 -8.567)" fill="#fff"/><path d="M268.77,91.844a18.364,18.364,0,0,1-4.679-.545c-.247-.074-.494-.223-.494-.5V88.378a.411.411,0,0,1,.446-.47h.074c1.015.1,3.738.3,4.7.3,1.707,0,2.2-.545,2.2-1.733,0-.718-.347-1.114-1.635-1.881l-3.416-2.03c-2.3-1.362-2.922-2.922-2.922-4.728,0-2.723,1.536-4.827,6.337-4.827a27.353,27.353,0,0,1,5.248.545.436.436,0,0,1,.371.446v2.5a.377.377,0,0,1-.42.42h-.049c-.693-.049-3.565-.272-5.248-.272-1.411,0-1.931.421-1.931,1.312,0,.694.323,1.015,1.659,1.733l3.169,1.709c2.575,1.386,3.342,3.02,3.342,5.025,0,2.624-1.733,5.421-6.758,5.421" transform="translate(-30.867 -8.567)" fill="#fff"/></g></svg>